<mxfile host="Electron" modified="2023-09-19T02:04:41.662Z" agent="Mozilla/5.0 (Windows NT 10.0; Win64; x64) AppleWebKit/537.36 (KHTML, like Gecko) draw.io/21.7.5 Chrome/114.0.5735.289 Electron/25.8.1 Safari/537.36" version="21.7.5" etag="8SIP1JPvPnj13kYwlFbd" type="device">
  <diagram id="lWImrMC2O3vY6OeCH__o" name="Page-1">
    <mxGraphModel dx="1185" dy="683" grid="1" gridSize="10" guides="1" tooltips="1" connect="1" arrows="1" fold="1" page="1" pageScale="1" pageWidth="20000" pageHeight="2000" math="0" shadow="0">
      <root>
        <mxCell id="0" />
        <mxCell id="1" parent="0" />
        <mxCell id="2" value="Start Here" style="shape=singleArrow;whiteSpace=wrap;html=1;fontSize=60;fontStyle=1;arrowWidth=0.4179566563467492;arrowSize=0.3152709359605914;movable=1;resizable=1;rotatable=1;deletable=1;editable=1;locked=0;connectable=1;fillColor=#ffffff;fillStyle=solid;fontColor=#000000;strokeColor=#000000;" parent="1" vertex="1">
          <mxGeometry x="80" y="280" width="493" height="323" as="geometry" />
        </mxCell>
        <mxCell id="3" value="LCR" style="swimlane;whiteSpace=wrap;html=1;strokeColor=#858585;labelBackgroundColor=none;labelBorderColor=none;fillStyle=auto;strokeWidth=1;fontSize=16;fontColor=#F7F7F7;fillColor=#707070;fontStyle=1;movable=1;resizable=1;rotatable=1;deletable=1;editable=1;locked=0;connectable=1;startSize=24;" parent="1" vertex="1">
          <mxGeometry x="3040.0000000000005" y="360" width="552" height="393" as="geometry">
            <mxRectangle x="920.0000000000005" y="370" width="70" height="30" as="alternateBounds" />
          </mxGeometry>
        </mxCell>
        <mxCell id="4" value="" style="whiteSpace=wrap;html=1;strokeColor=#FFFF00;strokeWidth=1;fillColor=none;movable=0;resizable=0;rotatable=0;deletable=0;editable=0;locked=1;connectable=0;" parent="3" vertex="1">
          <mxGeometry y="24" width="15" height="15" as="geometry" />
        </mxCell>
        <mxCell id="5" value="" style="whiteSpace=wrap;html=1;strokeColor=#FFFF00;strokeWidth=1;fillColor=none;movable=0;resizable=0;rotatable=0;deletable=0;editable=0;locked=1;connectable=0;" parent="3" vertex="1">
          <mxGeometry y="378" width="15" height="15" as="geometry" />
        </mxCell>
        <mxCell id="6" value="" style="whiteSpace=wrap;html=1;strokeColor=#FFFF00;strokeWidth=1;fillColor=none;movable=0;resizable=0;rotatable=0;deletable=0;editable=0;locked=1;connectable=0;" parent="3" vertex="1">
          <mxGeometry x="537" y="24" width="15" height="15" as="geometry" />
        </mxCell>
        <mxCell id="10" value="" style="shape=image;verticalLabelPosition=bottom;labelBackgroundColor=default;verticalAlign=top;aspect=fixed;imageAspect=0;image=data:image/png,iVBORw0KGgoAAAANSUhEUgAAAgAAAAFWCAYAAAAfRyWNAAAAAXNSR0IArs4c6QAAAARnQU1BAACxjwv8YQUAAAAJcEhZcwAADsMAAA7DAcdvqGQAACNcSURBVHhe7d17jCRHfcDxnpndvb2Xse9sDJiEvyJEFB5JIOfbjYPN0yAcIKzBBwHlnyjCMTgHPmIgJCBDYhP7FhtHICEkgkIO7DPv+AEBO0F3G4eXbUQiRUoISAQEfgDmfHu7OzOZX09X9W/6uma7Z7pnu6e+H+vnq52t6enuna76TVVPd+P48ePdIGFhYSEqAQCAOjt27FjQaDSin2LN6F8AAOAREgAAADxkpwD0sH+3e9qsAAAAqKFms2n7dT0dwAgAAAAeIgEAAMBDMg4Qjgsw7A8AwPRZWVmJSkGwuLho+3tGAAAA8BAJAAAAHso1BaCHEQAAQPUtLy9HpUGMAAAA4CESAAAAPLRpAiDD/iYAAMB0YAQAAAAPkQAAAOChTb8FUIWh/4MHD0al+ltaWopKQXD06NGoVH8+bJdcQAP1QbtRfbQbk8G3AAAAgEUCAACAh2o3BaCHVuroqquuikpBcP7550cltquq9HbxTZh6mdZ2Y//+/ba9ZruqqWrtBlMAAADAql0CcPBltwRvueSW6KdY8jH5OS0AAECNRwCGdebmd6+6+rzg8BdeHUbSsWPHbLgUVQcAgKqpZQJgOvRhSYB0/porEQAAwEe1HQHIkgQAAIB0tT4JkCQAAIDR1DoBEAzrAwCQX+0TAEESAABAPrVOAPQZ+HL9CF02dB35CqEpa7qODi3t9xKafvzIkSM2AAComqkYAUhaevt5wW3X/vC0aMh1DwEAwHQmAC5Lia8GAgDgq1rfC0APwf/e858RlYJgbm42KvUynFYrKvU2Vg0BNFW50VRl/XiGst5v7Y12VAqCD3/wU1EpCA4cOBCV/LhmPvcCQBVwL4Dq82G7uBcAAACoFBIAAAA8NDUJwNzcnI1t89ts3PHFr6bG/Pb5OObTY7uKbqebGtt7zzexbVvvtaMAAKDKGAEAAMBDJAAAAHhoahKAVqtpY+3Uuo2l17zMxqWXXWLjs7fdYaPVatmYmYnj00dvt7H7jN0qdtm47ZbbbbRmZmwAAFBljAAAAOAhEgAAADw0PQmAXJwnCrlQj4lmMw79eK+iDVcdHYN1mipOrysBAECVMQIAAICHSAAAAPDQ1CQAevh9x87tNvRZ+rfd8k82Xn3gEhv6uc1G08ZrXvtyG7cc+XxqXPa6l9vQywEAoMoYAQAAwEMkAAAAeGiKpgDi+MzRO2y4LgR08rFVGwND9zJ6H8Vjvd+ZuOx1r7Bx4A/j+NSRz9uQWwybAACgyhgBAADAQyQAAAB4yN8EQA316x/0dICM5JsYpOqrn4Y8AQCASmEEAAAAD5EAAADgoalJALrdOF75qpfYOPqpL9q49ZNfsDE/P2+j2+3Y6HTi0HVOnHhMxQkbrz7wcht2BSQAAKgwRgAAAPAQCQAAAB6amgRgfX3dxtramo2XvfwFNi55xQtt6DqnTqWHrtNqtVJjvfc7E2vrGzYAAKgyRgAAAPAQCQAAAB6SK9aEp6x3HWeur6ysRKWtc/DgwagUBEtLS1EpCI4cORKVJkvvq/D+AZs4cOBAVAqCq666KioFwfnnnx+VBrerjnzYriocC8jO1W7UkX4f7t+/37ZBbFc1Va3dWF5ejkqDGAEAAMBDJAAAAHio1lMALnpqQA+/a5Oso/kwVM4UAKqAKYDq82G7mAIAAACVQgIAAICHSAAAAPAQCQAAAB4iAQAAwEO1+BbAsWPHotLg2ZV1d/3110cltqsOfPsWgJyVbdRx22k36oV2ozx8CwAAAFgkAAAAeKh2FwKqO32Bi6NHj0al+vNhuxYXF6OSH/QUgFaX6QDajeqj3ZgMpgAAAIBFAgAAgIem8l4AVabPbuVeANWnt6vsY8E15F5lVZ4O4F4A1efDdlXhGGEKAAAAWCQAAAB4iAQAwMhk2NYEgHohAQAAwEMkAAAAeIgEAEAhmA4A6oUEAAAAD5EAAADgIS4ENGE+XDCHCwGN5uMf/3hUqoYPfehDUWk8W9WGcCGg6vNhu7gQEAAAqBQSAAAAPMQUwIT5MFTOFMBopvnsefOeOHz4cNBoSLNTPqYAqs+H7WIKAAAAVAoJAAAAHiIBAFA6GdKVuOvOO4M777gjDABbiwQAAAAPkQAAAOAhEgAApZOzoiUufslLbADYWiQAAAB4iAQAAAAPcSGgCdMXiOBCQNU3yQt6TOu9AC6//PLg9a9/ffTT5HAhoOrzYbu4EBAAAKgUEgAAADzEFMCE+TBUzhTAaKbpXgAy7G/alDe84Q3hv5PGFED1+bBdTAEAAIBKIQEAAMBDJAAACiHD/m984xvDkLP+Zeh/q4b/AWyOBAAAAA+RAAAA4CESAAAjY9gfqC8SAAAAPEQCAACAh7gQ0IT5cMEcLgQ0mrrcC6AKF/nJggsBVZ8P28WFgAAAQKWQAAAA4CGmACbMh6FypgCmg743gZzlb9TlLH+mAKrPh+1iCgAAAFQKCQAAAB4iAQCQylzgR8Jc4IeL/ADTgwQAAAAPkQAAAOAhEgAAqRj2B6YbCQAAAB4iAQAAwEMkAAAAeIgEAAAAD5EAAADgoVrcC+DYsWNRafAay3V3/fXXRyW2qw58uxdA3dFu1AvtRnm4FwAAALBIAAAA8FAtpgAWFhaiUv3t27cvKgXBvffeG5Xqz4ftOnz4cNBoyCGDOqDdqD4ftss1/D5JTAEAAACLBAAAAA/Vbgrgm/+6OzCjsKurrX6hp6NWv9OOh2n1491u+vBtoxFXmpuNy65lNlvxL2Zn4vK2uU5UCoIzH7cRlXrLnI8f/8Rn3xuVguDQoUNRKQg2fvq5qCSv245KCWp9uh1HHYdGK95XA9Qyw3dDpBHE9ZvN+BeN5kxUGnTDR78blQa3Sw+F1dHS0lJUCoLFxcWohDrQ7cYN1+2OSkHw8MOq3YgPzaDdid/n7fjwDTb0sa+OkWYzPnjm5+Pyhjo0dZvTUvW3b4/Lu3fHK/HUX4tf+Jxz4sfvOX5N7//9ZU3r8UW7UR6mAAAAgEUCAACAh2qXAPz8F7M21tYbNtbXmzb045oM0ZuQ4TgTMqxnQj93YyMOGR40sbratPHoL1s2Hnx41sb3frDdxn/8504bLu2NNRvddjs1Op04NBnet9FopEba8sLoLctEp/eziXa7ty5RrK+fiuPUCRtrKoAq+/4PZm2srsox3I8TjzVt6Me1HTs6NmT6z0Q4Ih+Ffu6GtB1RnDoVxy9PNG389MGWjf/53qyNu/55u42Pf2KnDTP8DxSJEQAAADxEAgAAgIdqlwDIGfsmXOSEdxNyFq6JU2tNG3pIX4eeDpiZ6drYsb1tY+eOOHbvikPX1+upHx+HDAKa0AaG9Lvd1Gg0W3GY6YJeNFtzKuTnfrR6P5twva7rcaBq5Ns6Jhq9Vs/EzEx6yJn/JlZPNm3oaUH5ZpCJVu85JmZme8d6FHv3tFPjnLPjkG8emZhpxaEfB8rACAAAAB4iAQAAwEO1SwD0cLoe3nfRZ/vv3LFhQw/pz852bOizfPV0gFwwxMTsbNfG+kbDhl43V7joYfks9Bn+g8P4cQwsU3aRCaW3F+1/zUbLRjdo29DLcQVQZXpYfn1dvjXUj3Y7sNHtHdsm9PD73rM34lDD+PPzHRsDU369w8GEHPEmduzo2lg91bCh180VQBkYAQAAwEMkAAAAeKh2CYC+4I+mh/p16OH3x062UkOf2auXry8KtHqqZePRX87Y0PUHzgpW66CX76LP5Nf0UL+OoNnb/ig67bXU0Mt0x7oN18WIBsYxlYE6QIWtneodz1HoqT3dPujpv7m5OB55uBXHI3HoYXzdDuiLAv2sV8/ED/9vxsbJx5o29FTm9vmuDX1BIaAMjAAAAOAhEgAAADxUuwRARpvTQm7da0Jf2Edf/EcP9+lvBOjH9TcC9JnAur4e3tdn/+opgxOPtWxkmgJwRcpFfcLobbQJfTa+61sArhiory4WpOl7EOj7Bej1BKpMbtFrot2JQ7+J9VD8ydWmDX02/p49Gzbklr4m9H1Gtu/oPRaFrr9tW69eFHIrYRN6yuChh1s2dHsClIERAAAAPEQCAACAh2qXAOzY3rGhh+j1mb2uIXo9FK+/BeA6e18/d3W1ZUM7Y/eGjXPPWbNx3hNP2dD3C3DR1+FvNuNI+waAhKanA/S3AOyViyQcut3e86LQWjNzNmZnt8UxF4e+XwBQZWed2bExP9+1oS+QNXDsB3Hos/F//ouWjfW1ho3Zua4NPbyvbxeunXfeho2nPXXNxm8+85QNfb+A/jwFUCxGAAAA8BAJAAAAHqrhFEB8Df9fffKqjV27Nmzos/o1PU2gh+V1ff0NAh2ubxn84tEZG4/8bNaG/haAnkpwaTVnbMzMzttotmZtBOriP5o+e18P3bvqa91OOzX0RYHa7Q0b3d4OMAHUxVlntW1ceMGqjfOetGFDX/xH07f6ffw5bRu6vp5e1FMDvUPGhq7zwx/O2Pje92dtPPhQy4a+MBFQBnfPAAAAphYJAAAAHqpdAqBvwXniZNOGNjfXsXHO2Ws2nnzeqo258EI//Wi1ujb0NIEO/Y2D+W1tG7t2xqGH7PQtR/VznXqvYaLb3bCh6dv1zsxti0NNGQx8WyBo2XBJuziQxMBUglq3Trdto9nbMSaAKtu7p2PjRz9u2tB27erY+PWnrdm4YHHVxs6dHRuDF/bpHZ9RzM7GoS8KdMbuto1zz41DT0E++mjDxs7ec0wAZRg8AgAAgBdIAAAA8JCM3YbjS3J9+TQrKytRaessLCxEpSD48uf2BOY6OC01st12X2PHkmt8G8POyDdcy5ehOkPO6DX0467X+vp33xGVguDQoUNRKQhWf3RrVOr/UYzN13Lwb5e8SFAa1/KzPO5y0z/8b1Qa3K59+/ZFpXpaWlqKSkGwuLgYlVAHut140+V7opIcI1Ghx9HsDZDLARlyYaDNzKh2Q+49YOj2od2OlzmrHu904sflQkLGE56c3m5M0/FFu1Ge5eXlqDSIEQAAADxEAgAAgIdqlwCYs2X1cJqQ4XoTmn5c3+pXP66XqR/XF/DRZ/LrW3/qxzVdx3yTYNjJ8vIrE1qWx5uNhg39uCu0gfsO9DbahF6mpuvobxwAVaaP01av1TMhw/Um5G1sQj++rddemNCP63ZDP67vBaBvGbx7d8fGtjlpR/qh7dzVseE8aIGCMAIAAICHSAAAAPBQ7RIAObvehCZn6Ztw0dfi1vTjejn6tdbW49DX+df3BdD1T601bZh7CIxy+Xx5igkXVx39uA6t02nH0dtoE/LNAhOavvWwqw5QNRvt3vEdhT4e5Sx9E/I2NtHuxKGP/YHnqnZDL0e/1smTcTzySMuGXqZ8y8DEiV82bdgDVgIoASMAAAB4iAQAAAAP1S4BaLeD4MKXPnRatFoNe/a+eP4lD4XhqnPhSx/sV+wxj5nnCnmupuvos39dZD1N6KkBl+Ro39wTlsLY1gt9IrD8LGF+L2F+b+ro55pISqujlyO/S5NcT6AOOp0gWL7pweADH3xoIPTZ+/pbABI33vxQGDf9XVxPnmOkPffGm+N2Reg6+psI+ptBuq1wTSUAZahdAvD8S/oH2Fe+sDe45/Z+CN2hZ6lTZabzXfvx0fBfw3Tkp3qPy+/M73VnrZ+r6+gkwFXH1ekDdSeduHxd9c1/ujd4y5v7IeeuHL5pMNE3TEd/8M1nh/8C06iWUwDSsV9zw9ODd7+/HxdeeGF4MEvZSNYxdFnIz3LST5phvyuL6ailU37xgZvD8osuuzkMIZ3/xb3HzWPmBLx+OSyGzzW/lzBerMquOros5OdJ7wOgDFdecXbwwHefHnzrgX5cdNFF4eNS1j7wwf4HhT97097g2w/8Rlg2zzHu+87gc7RhvwOqpHYJwNfu3BsOoRnvftt3wpDht/DnqNOWzt+45557olKfqSMX6RGtZtdOE5ghOkN+J7Fje9uGvgWw+b2EvnBQlmkCTS7Eoz+luzpe6cTN47Jd+iI8OmEwktvef353aJ3+a8t2nD70KI+YAOriz6/aE95C3PitZ3wnDEM6d7kwkAz5m/e9qyPfsaO/nNm5/giCxGyvzZAwzG2CzzqrbcN1C+CZVhym/ZHQ045AGWo5AiCuufqBsOM3HberS7r77rvDf/vTAOmd8QUX94f7vnbnnuBd1z4jteMt2+zjXxn+u/6Tz4QjGuKuI1eE/6YxnbYZvk9jtl2W6WLqbPz08+G/wDTb9+wHwo7fdNya+fmtV55tj8HfflacJCRdd/3D4b9XH9obfOPbzwjLQJ3UNgG44OKHo46/757bT5+rM5+QpfN3DeebOqbz30rSUb/oNTeG5S998oreeoXF05hOW08TJJntkmW+8NU3hp/ok0wd6fxfcOnh1DrANJFOW3f8ci6AJj9/8/7+sP+wzt8cgzKy8G9fZ8gf9VS7BEAuuCOdvyGdu2Tr735//6A10wHmE7KQzj/N/hc8EpUCZ+c/P98O44zdGzZ274rjV3/lpA09TaDP8tVTA8PIKMDdd98TrruckJd2Up7ptIVrmkBvu3T+aXQd6fzTzMztCP9ttmZ7MReGvLYJoC7W1xrBtX8bd/wyvy/thpnXf9bT+529JAdybEjc8IGHwkj66+sese//e78Rtxt6qP6MM3ptRi+e8pQNG+c9KY7nXXjSxll72jaavRbZhL5EEFCG2iUA5kx+6fgvCjv+/gEsGbl0/poc4GYoT58nYJhvBxhSR6YWtqJvk0/zEhdd1F9nve5JcvKS+d1djmkC/fz+aMLpG6XrfPXTb6VTx9SSjl3e3/IJX97zZn5fOnrT+V95xd4wzHGhjw/NfIPAkJECmVoA6qZ2CYCwQ/q9snTaaZ27Jr93nScgB7gczPoTcV1Ix77ticO/uid1Nvt6n3T+zT2XRD8B00nm9vUnftPxj8J8g0DaDRJn1JW8c8NU1jX/u7KyEpW2zsLCQlSSC3p0nAecydb/5i/uC/a/4GdhOcnUkRGD//rW7uBP3vrs4Lq/vC/Y97x+/WNfPiv8d/GF8fRAkqkj5Drghj7jf1aV11WdlfvfGZWC4NChQ1EpCNZ+8umoJH+UeCxx5pzft+v85VuvDGbP6Z8smGTqDOvMTZ0v3XJlMBeddJik949rP2/89LPhv101NHnj3/93VBrcrn379kWlelpaipOnxcXFqIQ60O3GsPNbzHv+ub97X/ivOPNx8TcGDh76ha0jHf4nPrYr+MjHnh08/7n3Be96T7/deMfb+m3C+6572HncvP1te+x6bKyrdkN9e2DH9rj82Mm4ztnnprcb03R80W6UZ3l5OSoNkndY+I6rSwLwtbvODD/tv/N9z4weOZ0kAFLn6mueFT0y6CPLX+8lEv2DyyQAUv9t7+nXf+877t/0NUydshOAbtAOXnhpfx5fEgDxovCkvrA44Cu3vaW3Tv3Xet4f3BD+m2SWIcxyk6SO3OxH6K8LJullkQCganS78fZDZ4b/Hv939zHtSgCe+IR28OGPPics//EffSP81yQA4iv/0m83Fn7n/vDfYa9x/nP6dUgA+kgAJsOVANRyCiCra9/V69ijsiGdv8v7/ypuAKpMPsEnJefw+z9HP0R0hy3k583qABjOJAJA3UjzH6acVR4BOHjwYFQazKzq7ujR+Dv8bFf1MQJQL7Qb9UK7UR4vRwAAAEA6EgAAADxUiykAfTJP3emTW+69996oVH8+bNfhw4cHzrOos/37D0Qlt5WVI1Gpnmg3qs+H7XINv08SUwAAAMAiAQAAwEO1mwLQQyt1pM9u5fu81ae3qwpn844zdJ/luS7uZb629//0tsNYWfnH3v8nP3VCu1F9tBuTwRQAAACwSAAAAPAQCQAwZWSoPy3GkbY8ic2G/wFUFwkAAAAeIgEAAMBDJACAh+Ss/s0CwHQjAQAAwEMkAAAAeIgEAKiRvEP0ur6OLNKeJ5Hloj5y8Z889QFMHgkAAAAeIgEAAMBDJADAlBkcri+eHt53BcP+QPWRAAAA4CESAAAAPEQCANTI4HX4AWB0JAAAAHiIBAAAAA/Jqbrh/Ty73fTbeq6srESlrbOwsBCVgmDfvn1RqZ6WlpaiUhAcOnQoKrFdVaW3a3FxMSpNVpbh/v6Z99lt1RSCfINgUt8QoN2oPtqNyVheXo5KgxgBAADAQyQAAAB4iAQAAAAPkQAAAOAhEgAAADxEAgAAgIdIAAAA8BAJAAAAHiIBACpu8Da76fLeI0Avc5zIclEffftgbhMMVAcJAAAAHiIBAADAQyQAQI0MDr9XF8P+QPWRAAAA4CESAAAAPEQCAEyZvN8IyGv//teq5affRhxA9ZEAAADgIRIAAAA8RAIA1Eje4X1dX0cWac+TyDLszzQBUH0kAAAAeIgEAAAAD5EAAB7SQ/quADDdSAAAAPAQCQAAAB4iAQCmjL5fgI5xpC1Pguv8A/VFAgAAgIdIAAAA8BAJAFAjacPwyXDJUkfLUl/f9tcVTBMA1UQCAACAh0gAAADwkIzNhRfq7nbTr9e9srISlbbOwYMHo1IQLC0tRaX6O3r0aFRiu+pgcXExKqEOaDfqhXajPMvLy1FpECMAAAB4iAQAAAAP1WIKAAAAjIYpAAAAYJEAAADgIaYAAACYMq5hf40RAAAAPEQCAACAhxrdaOy/0Yiv1338+PGolG0YAQAA1AsjAAAAeIgEAAAAD9kpAH22/8LCQlQKgksvvTQqAQCAOrv11lujEiMAAAB4iQQAAAAPpU4BaHo6AAAA1NexY8fst/4YAQAAwEMkAAAAeGjTKQAAADB9GAEAAMBDJAAAAHiIBAAAAA+RAAAA4CESAAAAPEQCAACAh0gAAADwEAkAAAAequyFgMa5B4G+1nEZ9LodP348KpVjkq+VxeLiYhC9ZQa41i3L33Gc7Spq+a7t0rK8r7Isp6i/4zjHiF6HvO8xvY1lH2sAysMIADKRTkJis87NkE4iaweVZ7mGWZ8shtUzy8ny+rJNLnmWk7UeAJSJBAAAAA/V7l4AVRh+lE9wRlHDuS6TfC2X5LC2WQ/9uGtIWbj+TsnliizbmFy+6znJemLYeuZZjt4m1/5JGnV7XfR6TXI5ejuYAgDqixGAKSANuIkimWXqTksa/DykQ3F1ELKscTouMe7zjbzb5VLUcgCgbCQAAAB4yKsEQIYu9afltHBx1XE9ruk6rqga2VeafNIe9mm+aorap8n9MKq04f8iJd9PJgDAxYsEwDSGWRrgrPWKVpXGOm1fjTOsPWx/moSsSGb9x2WWM+57oajlAEDRmAIAAMBDU/8tgOTQq+uksbRPjVnqjnsS2mavW+RrbSbrvjJ0/WTd5LI2k+Vvabj2SXJfmt9lqa9f37Uf9OOu+sOWY35X1N90q5bj2l4A9eLVCIA0Vi7S8I3TiI5qq153M8P2VdVIB6Y7MTHKPjXLSXbaebmWQ0cJoEqYAgAAwEMkABNgPhEOi6qRYd609dShP+Fqyd/Jp18z0qFDfyI2r5dX8jlm2XnJ62tp65hFUcsBgLKRAJRo1E5tmgzr/ExiUJSillXU9EdRywGAMpAAAADgIRKAkmQdBjcxDnktE+PYbB2TUfawdtbtMuszrqK2q6jlAECZvEoAkvOz2qgdqDzHNRdetFHWb6sN2z9lT5HIsotYvlnOuH/nOkwJDVu/ovYDgGpgBAAAAA95cTvgvJ+6sixXr4eRHIZOq5NFcjlp66/r6N8nn1smvX3jbnvaPh+2XXn/pq79slXLyfreHSbva2pl7U8A9eHFCIA0VhJZGtys9cx8+TBZ6mRh1t/F/L6I1ypKnm2Xenk7wzzbO6yeWU7Wv7lLnuVkrTdJZv2zGLYfANQHUwAAAHiodlMA8Icels766RQAkA0jAAAAeIgEAAAADzEFAACAhxgBAADAQyQAAAB4iAQAAAAPkQAAAOAhEgAAADxU2W8B5L0IzCj3CMgj7/pwEZvJcF3D3rXPXfW1LO+fLPc6KOp9mGWdXfR+2Kr3cJZjc9h9JYqW5T1T1L7K2y656rveb2XvK0w3RgBQS9LguhryNHnqS2PrYpaT1hgnDVuOD/Lsq7KZdZGYJtO6XZgMEgAAADzEFEBGedcnb31kl/y0Y/ava5+76icl64lhw7CjLicv13bllXc5475unufrfTvONiYl/2bGZq9R1L7K2y5lra9fTyuj7cP0YgQAhZPGyUSR0paZt7MYVl9+J5GlAZWGFm7SkVWN/M3M37juzHZkfb8CaUgAAADwkFdTAK7hQM31WlnWJ8sn3jKeq2VZjjbOvnI9N+/fLovkdqUt1/W6edfH9V4a5z3mqp9Flr9p3vdGGfVF2rqO8x7L+rppkuuS52+QZZ+76HXO8p7R8tYXaftxnP0Gf3gxAiAHs8RmjY3IWm8rDGuUzDaOyywnyz7I0oCPS14juV1Fdgpanm1PGue500r+ThKjJj5Fqsp6lEESBTp8jIIpAAAAPDT1UwDJT6muZenXM3TdvOuTt/4wedZNbPZ6Ze+rouTdrmH7PG2dh0l7rbz7zVU/r2HblUfe5eStn/X9k0Y/d5xt1MbZb0Xtq7zvgXHeM+NsL/xUixEA/cZOkt9J6IbHRQ4oFzlgqnrQ5Fm3orYhy74atUMbRVHbVaS0996w/Tat2A/ZSOfukrYPgbIxBZAwyU4NAICtUtkEYJRPfFvxybQo5hPAsJgk+bSStg46JvlpJe31k+GS/J15nyRDM8t0bWPy05xZhu8JJPth0CgjIexDTEptRgDSGuRhQ2p1YbarKEUuaxpJw+oyasPr83B3XY7BZNuxVczxXmQ7ZpJ1IC+mAAAA8FBlvwWg6exWPm2ZT2iS+ZpMWj+uZamj6fr606Jeh2GfIo0s9ZNZ+2bLHbbM5LKyyrs/s8i7r4riet286+PaD/pxsdmyqrY/8y5nWH39O2OcbXQdd+Ma9W9Q5L4ysryvRtmHRb3P4B+vRgDkQHGRA1jCHEjDZK1n5K0/Cml0im44p5FuqJPyvAeGKWo5ZcqyH7Iy772iOp6y9p28p/NuW1WZ7ShrX8EPTAEAAOChWkwBCFfWnuVTb96M3zWMpofajGGvn6V+3nUzsmy3i16v5LYWsT56GeOsZ17DXjfvdrnWu6jl5DHq30SUsR+S7+sitlGkrVuZy07Sr6XrZ1mHrPVd67HZa6S1JUlF7Sv4ozYJgDGs89pMloMoyzLLaBxcDYPLKAd72mvkSXaGqULjU9R+zvIeKOq9lEXe94Y2zn5wPXecYzCLLH/Hcbi2Xb9W3nXIWz/vPnS938rYP/AHUwAAAHiodiMAOF2WT3NJfHIAAL8xAuAhGXIEAPiNBAAAAA8xBQAAgIcYAQAAwEMkAAAAeIgEAAAAD5EAAADgIRIAAAA8VNlvAYxycRtDX1qz7MuWVk1R+w0AMN0YAQAAwEMkAAAAeMiruwH6QE8BsH8AAC6MAFSEdNwmAAAoGwkAAAAemvopAFd9/bim6+hP41lun5vl07trOXlfyyXvCEIZ0wR51yHLPnEp6u+S972URRn7FgCKwghAgjTy0mEkOw352dX4m+dkMWw5W0HWvSh59sMwefeni/wu63KG7QeznCr93QBgXCQAAAB4iCmAHnl82CfAJD3snPyE6Von/XrGOEP940r7ZDzOkHXW/bCZrMtJW/9hf5c80wz6NZN/t638mwFAkRgBiEjDLqE7G/NY1kY/+XxNOpWsy5kEs12jdNKTMmz9zPpnMayeWU6V9wMAlIEEAAAADzEF0ON6XH9y1EPFrsfzGvbJdFLy7s9h9LI249r2ovan6+81ijzrNO4+BIBJYQQAhZHOL2tnK51q1mRhq8k2SWTp2CUJAoA6IAEAAMBDTAH0ZFmOa0i5qKHmMpYzzv4pi349owr7c9z9oF/PmMT+BIBRMQJQIOkEkp3bVpJOzUXWtWrrm1TU+qV1zkYd9gMAlIEEAAAADzEF0JNlOfpTZHJIWS8rjzKGvsWwT7xpxn09kfc1hWu/F7E/RRH7YZR1KWJ/AkDZGAEogHRk4zb68nwT4zLLyTL/LOu+FYatXxH7U5j9kEVR+2Gr9icA5EUCAACAh2o3BQAAAMbHCAAAAB4iAQAAwEMkAAAAeIgEAAAAD5EAAADgnSD4f2Ed1gwJgf9SAAAAAElFTkSuQmCC;" parent="3" vertex="1">
          <mxGeometry x="19.999999999999545" y="36" width="512" height="342" as="geometry" />
        </mxCell>
        <mxCell id="11" value="" style="whiteSpace=wrap;html=1;strokeColor=#FF8000;strokeWidth=4;fillColor=none;movable=1;resizable=1;rotatable=1;deletable=1;editable=1;locked=0;connectable=1;" parent="3" vertex="1">
          <mxGeometry x="329.99999999999955" y="160" width="54" height="54" as="geometry" />
        </mxCell>
        <mxCell id="lLcEE2VpeBTed9rbKcfn-32" value="" style="rounded=0;whiteSpace=wrap;html=1;fillColor=none;strokeColor=none;" vertex="1" parent="3">
          <mxGeometry x="60" y="160" width="55" height="54" as="geometry" />
        </mxCell>
        <mxCell id="9" value="&lt;font color=&quot;#000000&quot; style=&quot;font-size: 23px;&quot;&gt;Legend:&lt;br&gt;Green: A normal processing chain&lt;br&gt;Purple: A recycling loop&lt;br&gt;Red: Something that needs to be primed&lt;br&gt;Blue: Inputs&lt;br&gt;Orange: Outputs&lt;br&gt;&lt;/font&gt;" style="rounded=0;whiteSpace=wrap;html=1;fillColor=#fff7ad;strokeColor=#000000;align=left;verticalAlign=top;fontSize=23;fontFamily=Helvetica;labelPosition=center;verticalLabelPosition=middle;spacingLeft=10;fontStyle=1" parent="1" vertex="1">
          <mxGeometry y="1820" width="480" height="180" as="geometry" />
        </mxCell>
        <mxCell id="12" style="edgeStyle=none;html=1;shape=flexArrow;fillColor=#FFC98F;strokeColor=#D79B00;entryX=0;entryY=0.5;entryDx=0;entryDy=0;exitX=1;exitY=0.5;exitDx=0;exitDy=0;" parent="1" source="11" target="13" edge="1">
          <mxGeometry relative="1" as="geometry">
            <mxPoint x="3640" y="556" as="targetPoint" />
            <mxPoint x="3424.0000000000005" y="556" as="sourcePoint" />
          </mxGeometry>
        </mxCell>
        <mxCell id="13" value="Diesel" style="whiteSpace=wrap;html=1;strokeColor=#d79b00;strokeWidth=4;fillColor=#ffe6cc;fontSize=16;labelBackgroundColor=none;labelBorderColor=none;fillStyle=solid;movable=1;resizable=1;rotatable=1;deletable=1;editable=1;locked=0;connectable=1;fontColor=#000000;" parent="1" vertex="1">
          <mxGeometry x="3680" y="529" width="204" height="36" as="geometry" />
        </mxCell>
        <mxCell id="14" value="LCR" style="swimlane;whiteSpace=wrap;html=1;strokeColor=#858585;labelBackgroundColor=none;labelBorderColor=none;fillStyle=auto;strokeWidth=1;fontSize=16;fontColor=#F7F7F7;fillColor=#707070;fontStyle=1;movable=1;resizable=1;rotatable=1;deletable=1;editable=1;locked=0;connectable=1;startSize=24;" parent="1" vertex="1">
          <mxGeometry x="2360.0000000000005" y="360" width="552" height="393" as="geometry">
            <mxRectangle x="1760.0000000000005" y="360" width="70" height="30" as="alternateBounds" />
          </mxGeometry>
        </mxCell>
        <mxCell id="15" value="" style="whiteSpace=wrap;html=1;strokeColor=#FFFF00;strokeWidth=1;fillColor=none;movable=0;resizable=0;rotatable=0;deletable=0;editable=0;locked=1;connectable=0;" parent="14" vertex="1">
          <mxGeometry y="24" width="15" height="15" as="geometry" />
        </mxCell>
        <mxCell id="16" value="" style="whiteSpace=wrap;html=1;strokeColor=#FFFF00;strokeWidth=1;fillColor=none;movable=0;resizable=0;rotatable=0;deletable=0;editable=0;locked=1;connectable=0;" parent="14" vertex="1">
          <mxGeometry y="378" width="15" height="15" as="geometry" />
        </mxCell>
        <mxCell id="17" value="" style="whiteSpace=wrap;html=1;strokeColor=#FFFF00;strokeWidth=1;fillColor=none;movable=0;resizable=0;rotatable=0;deletable=0;editable=0;locked=1;connectable=0;" parent="14" vertex="1">
          <mxGeometry x="537" y="24" width="15" height="15" as="geometry" />
        </mxCell>
        <mxCell id="18" value="" style="shape=image;verticalLabelPosition=bottom;labelBackgroundColor=default;verticalAlign=top;aspect=fixed;imageAspect=0;image=data:image/png,iVBORw0KGgoAAAANSUhEUgAAAgQAAAFWCAYAAAAWrIX3AAAAAXNSR0IArs4c6QAAAARnQU1BAACxjwv8YQUAAAAJcEhZcwAADsMAAA7DAcdvqGQAACMNSURBVHhe7d1bjCTXXcfx6u6ZvcxeMHaCgCAeeOAWBxAJrHeGi42TEKM4QWIMrIPySC44SIu8ISQhdgiXJJjdBwJJeEGKBCuyCxI2MiGJFUOYHVs4CBLnBkEIQQBBbnjt9ezOTDf1765T/evaOt1Vfa3T9f3If++Z7tN1665T/z6nqrrRiW1vb0d51tfXkxIAAAjZ1tZW1Gg0kr/6zp071/232f0/AACoNRICAAAQXTdkoMME8VNJCQAAhKzZbKbHdR0+YMgAAACkSAgAAEBvyEDPOmSYAACA5aOnB2xsbKTH+7vuuqv7Lz0EAACAhAAAAIw5ZOC7kREAAKgmdzVB1oULF7r/0kMAAABICAAAQImEwIYJXAAAgOVCDwEAACAhAAAAJa4yqMJQwenTp5NS+DY3N5NSFF28eDEpha8O62U39EA4aDeqj3ZjPrjKAAAAjERCAAAAwh0y0K6YEN17771JKYpuueWWpMR6VZWuF1fahGVZ242TJ0+m7TXrVU1VazcYMgAAACMFmxCcfvkHo1+684PJX33Zx+zvvAAAAH3B9xAMO7i7537qTc+Lzj70093I2traSsNnWnUAAKiqoBMCd4AflhRYMqB8iQEAAHUWfA9BkaQAAAAMtxQnFZIUAAAwmaVICAzDAAAAjG9pEgJDUgAAwHiay3CTFT3D3+5noWVH69gli66stI6GynveQunj58+fTwMAgKpaqh6CrM1feV70p+/84nUhN2YEAACxpU4IfDYzlyICAFB3jUuXLnXW19eTP8P8LQPtsv+R278nKUXRgQOrSSnOfFqtpBSvtHQRNKXcaEpZHy9Q1u22v7eflKLofb/7J0kpik6dOpWU6nHPf37LAFXAbxlUXx3Wi98yAAAAQSAhAAAAUdPXhRCqAwcOpHHw0ME0Ou1OPzr9OHT4UD8O5cdhiYHpSByOX+/i4MF43kkAABACeggAAAAJAQAAiBMCPQN3GbRazTSuXd1N4+ixI2kcO3Y0jatXr6XRarXSWFnpx59dfDiNY8ePScTTSOJPP/hwGq2VlTQAAAgBPQQAAICEAAAAxAmB3QRiqdjNgpKwGwe5aDb74XtcQ+toDNZpSlxf1wIAgBDQQwAAAEgIAADAEiYE2l2/duRwGs9e2UljZ6cfR46spaGvbTaaafzM3a9M44PnH8yNn33VK9PQ6QAAEAJ6CAAAAAkBAABYyiGDfjz77E4aa0fW+rHWDx1KGOjqt97+JK7Ez7n42Vf9ZBqnfq4ff3L+wTTsJ5VdAAAQAnoIAAAACQEAAFjyhEB6/f0GKvX/0OED6/l3MUjqy19DXgAAQCXRQwAAAEgIAADAEiYEnU4/Dh06lMYzz1zJDa3T6bTTaLf7oXUGX/9MGj996pVppAtgAQBAAOghAAAAJAQAAGAJE4Ld3d00rl27lkar1cwNrXP1an5onVarlRu78XMuru3upQEAQAjoIQAAACQEAAAgihqdWPfe/Yn4z6Q0aHt7OyktzunTp5NSFG1ubialKDp//nxSmi/dVroNfU6dOpWUoujee+9NSlF0yy23JKXB9QpRHdarCvsCivO1GyHSz+HJkyfTNoj1qqaqtRvnzp1LSoMuXLjQ/ZceAgAAQEIAAACWJCGwrvi8UHnPW6i85y2UPn733XenobSOBgAAVUUPAQAAICEAAAAkBAAAIEZCAAAASAgAAEBgNyba2tpKSoM3fAjdAw88kJRYrxDU7cZEemMf341Nqox2Iyy0G7PDjYkAAMBIJAQAACDc3zIInd6j++LFi0kpfHVYr42NjaRUD7797uzZs4V+w2PRaDeqj3ZjPhgyAAAAI5EQAACA5fj54xDp2bP8/HH16XrNel+wn38tQn8mdl58XbtVHj5Y1naDnz+uvnm2G0UwZAAAAEYiIQAAAAwZLEodutYZMhhP0SEDvYHLolV5+IAhg+qrw3oxZAAAAIJAQgAAABgyWJQ6dK0zZDCeokMG83Lf296WlKLo2PHjScmvasMHDBlUXx3WiyEDAAAQBBICAADAkMGi1KFrnSGD8XzgAx9ISsO9+tWvTkqzNcl+V4XhA4YMqq8O68WQAQAACAIJAQAAYMhgUerQtc6QwXiKXmWgXavzMsn7uKjhA4YMqq8O68WQAQAACAIJAQAAYMhgUerQtc6QwXiKDhlU6bcMyrr81FNJKYpedscdSWk2GDKovjqsF0MGAAAgCCQEAACAIYNFqUPXOkMG4yk6ZDAvZX/LwGdR3acMGVRfHdaLIQMAABAEEgIAAMCQwaJoVxJDBtU3z66/Zfotgyp0mTJkUH11WC+GDAAAQBBICAAAAEMGi6JdSQwZVN88u/6KXmWgXavzUuR9rFo3KUMG1VeH9WLIAAAABIGEAAAAMGSwKNqVxJBB9c2z66/okEGVfsugal2jiiGD6qvDejFkAAAAgkBCAAAAGDJYFO1KYsig+ubZ9Vd0yGBefL9lULXuUB+GDKqvDuvFkAEAAAgCCQEAAGDIYFG0K4khg+qbZ9dflX/L4LHHHktK1R4mUAwZVF8d1oshAwAAEAQSAgAAQEIAVI0NBRSJefnxl740Dev2dAFguZAQAAAAEgIAAEBCAGCEl91xRxoAlhcJAQAAICEAAAAkBAAAIEZCAAAASAgAAAAJAQAAiJEQAAAAEgIAABDYzx9vbW0lpcGflQzdAw88kJRYrxBwH/+w0G6EhXZjdvj5YwAAMBIJAQAACGvIYH19PSmF78SJE0kpih5//PGkFL46rNfZs2cj3WdQbbQb1VeH9fJ1188TQwYAAGAkEgIAABDukMETf308cov97E5+XtPe76/Xfnt0F2+r2V/3Zqtf1ukorbO60i8fPtROSlF0/NheUoqildV+nfMPvSMpRdGZM2eSUhS94fbbk1K8zMm/Wfoe9Ut+uvRF3muto1u2JY+vaB0pf8NLXpKUBtdLu85CtLm5mZSiaGNjIykhBNpufOJvjielUNuNX4v/35uu7l9feOXhpBRFux3PesnitDuj16vZkPXqFwemow3QYFvRf+KAVFpr9Fu1pjz+hxu/mZRoN2aJIQMAADASCQEAAAg3Ifjq11bS2N1t5oZ197loNDpprK6207DuPhfKuvvSiJ9yodPUeV15tpXGl7+6msYX/vVwGv/8L2tp+FzrdNJoe8KW1IWyrnsX1qvnQtkwQRr2d07ovPYkrrbbaTy9v5/G5b29NIAqC7/dyO/qv9JeSWMvrpMXNkzgQtuHlXivd2Hd+C7sPxc2mOGiE7/eRdumm4TO62qnmcblTiuN/94/mMZ/tfuBaqCHAAAAkBAAAICAE4IDq500tPtOu/iUdnPt7DTT0K48DTsT2IXO68jaXm6sHd5PQ5dnZaUfvmVT9oa40G69IvY7nTSkt28g7AoCF634bxd21cCo0OXRAEKh+7Lup759M5R2o9Vop6Hd/r79VNsEuyrBhQ4BaGi7pEMMh+L5pRHXdHFQQpfHrlxw4Vs2LI69vwAAoOZICAAAwHIkBNd2G2ns7fVDabfbDV+3l8ahg/tp6FnERbRa/djfb6Th6zbUbsAiBs7slfBZbTbTsJsIudCrD4rQrjy9KsE33FB2+kAVLGu7sd9ppqFXFii3f1usNfbSOBC3Ni50aCBtfLKLII834v+5KDLc0JJANdBDAAAASAgAAEDACYGe2atdcNq95jtr9/LTK2nsXG2loTcM0dDuxGeurKTx1OV+aPej3pxE6XR8pAcu0m49X2h3/V67nYZecaA3GhqI+PUu9AZEuxJ253EXOnygdJpAlS1ru6Fd9DrMoWf1N+P904V21z/baaVxrdNMY68Tz9OFtS9J7Me7uYuduJ4LnY6+Vm/QpPbj51ygGughAAAAJAQAAGDJEwLtHtSuPO1S07OFDx5o54Z2G+pNRbRrUel8r15rpqE3OZmEzc2Fr7terzJo2d85YW++C98NiJTOV4cSgGWi+28w7YbunJ7QYQXt0tf9/UCjncZqvJ5pxBNw0YorutAbE+kNiJTOdzeenwtdPFQDPQQAAICEAAAABJwQaJed3hik2YhXKgntmtPQrjztptOzYVutuG4S2lV4bbeZht5I5PixvTSec+O1NJ57Uz/0vuU+2tWvVxDEqzMytL7riuuG/Z2E3lwo/l8aesWB1lmVONhs5oYONwBVFn67YXv09bSrX2/+Yy2BC+3S19ArDvRGRjYK6ULr6zR16MENP1qsNeLlTeJ4I16/nNDfO0A10EMAAABICAAAQMAJwcGD7TS+5Zt30jh6dC8N7ZrTbj29AcjqSicNpfcY1+5BvUmInoGsNxv5P4krzzbT0C5EH9flZrHWbKah3fLapW9TSqPTv3GQTkdpHX2tXq2goTcp0tAbHwGhWNZ2Q68CuKm5m8bhRjsNbRN6Hf690OHCVjwPF0qvFNBhhf34bxd7Elc6rdzQGx/ZAKMLVEP2eAEAAGqIhAAAAISbEBw+1E5jZ6eVht7EQ7v1brxhL41v+saraeiNRLS+8p1prGcs6/LoGct7e3ZP817ovdN9dGjA1y3vuv0s9Gz/tXjCLvSKA62vXHedhdbXKx10eRrxcrjQoQedDlBlup8uU7txIOqkcS1eBxc65KFXExxt7KdxYzNevyR06EHr238u9IoDraM/nazh2gYLHWLoDVj0AtWQPUYAAIAaIiEAAADhJgRf/K+DafzHf/bjq19bSePy0600/udLq2n8278fSuNLX1lNQ8/41bN89adOd3biv13I4zov/UlTDa3jc6Xdzo1rHesK7IWe7b8TP+fi6f39NK7Gf7vQ1+7F83ChQxK+0Hnp7xdoaB2gysJvN6zj/Xpfaa/2o3MgjSudeJmS2OnE80ziqXa8vEn8b/tAGpfjv13ozxnr1QEauxL6uM5Lb16koXVQDfQQAAAAEgIAABBwQqBn7WroGbkaKu95C9909MYghw6109AzjQ+sdtJQOs0i9IzcIqHynrewN9mFPq70yoJ4ldPQ1yq9KgEIhe6PGrq/a6i85y1805lnu6Fn/jc7/dAz+TWUXj2kdXSa+ri2IauNtkQnjVbUTkP5bnyEasi28wAAoIZICAAAwHIkBHpTkSL29/ND6eN6H3I9W1jPKNazgpXet1xvPDIL1gmXFyrveQu9skCvRND7nCv9vQNbHRdAKJa13dD9uojsgIALpY/r7xr4rjLYjw8tLuIXpbFnv+uQhM4N1UAPAQAAICEAAAABJwTa3XfrT3wpeXSQddvd+hNf7sbtd/aj1WqkZwLffueX+mcI59x73Oq7ctHQrkKlP4c6zHsfeeS6UNbB5h5/n4RNVcM9rtOxqwLy6mhonfd+9KNpWXr+BvgeB6pmsN34cvLoIH+70b+CQNuF/Haj364UjUnajU6887m4+aHL8Q57fV3rnL/5wae6z7/goafS0KsM7MqEFzz4f93HrZ4LvXKhW0de7yL7vCu342VxofRnlFENwfcQ9Hbq/A+U7ZTmkYduih59uBfGl0BUgR20zetf/OLodbff3g37ASH3uLGDtnndkDqubM+9Pgnz+/EB3nFlNw0Lo3WAZeRLBowd7M0jDz1H2o3O0NdUxc1/EScDHnaQtkThU3cej56881g3TPc1ycH6+Un50y8/Fn3mzqPdSB9PuPKn4+lYPQvLRLQOwhR0QqA76P3vfkE34s/lAEsG3vE7vecsbr311u7B08rqvnd9z3WvdYY9Nwt2YP7M3l702firisVtt93WfdzKzmvjOp+VOo6WbTr292eScPLquHC0bLJ/A6HSLwSuXcjqtRs3S7vR2wetrG3B/XHb4GPtxjzdbAf8xBsuvzC6J46sT73i6+Lnvr/7nD7/hqf7ZTvQ/0L89+svv6gbjj3mVt2SgHvi6dhj+riWzT3x3whHsAmB3ezjr//yxm5Y9u7YccvFow8/p9u959z/xk91w/VcuZ3buuucH37ZV7qR5c7y1ZuKHD2yn4aeCazdgHpzkiLct3Tnu+IVsHDcgflzcoB+9NFH4+nHM064OnoQtzqqTB03ZfvXBRCiXrtxU9Ju9NlH3YX1CNgu5z7nrt1w3v7bvQSiSu1G/PL0G7uKp5CG+cX4IO587GMfS0o97uCtB3FfHT3wZ9sfV8ctuw4lWC0XqJ5anFTodmjrURg2xPDDL+v1OHz8QzfOvVcgyyUC1vWvQwFZ7iBuQww+bqe2YQPrHcnj6twTT8dXB6iT+65rN/K5RODjH7pp7r0C43IH8SczCYRyddywQR7X/vzTK/x1EI5aJATZHdq+IWS5D78lA7/6zsXv1DaOr4mADRFkuYO4G2LI49bLkgEdNlCujiUDT3qmA9SNDS0MthuDvQrmY4/29kFrN972zuuHHqrIHcSfvPO4t0vf1fnMK44NDBso1/78051Hotc8lV8HYQk2IdCzhZV19bkwukNbV6CdQ3Dfu3o7rmX/8XEw2njJV7t/G00GrBvPWVvb78ZNN+6mcezoXhrf+i07aawdjusmoV2CRVkiYAdoYwd7W2Y3ROCGD9xB3Gi3v3I7tRmWDDi+ZGAtmedKPD8XNmcXQCjKtRu9OtZu3NZtN3ptw31nesMHvXajV8faDdevtoh2w+btQukVBEaHAPS8AaV1fsGTDGj78/OXf+C6+ZrnNna7/x5stNMoOxSC+VrqHgJ38pDbod3JQ/aB1zHB3lnEfW//5U9G73jTJ+MPbfLAHLleARsCsETAHextB9RzCYydbGh1TPY5x54vU+eFBw50/wXqyn2JsHOQbL/onmtkf8f7oPsS0Xu+d/WBc/8be+1G1bn93YYG33P0E8mjg7TO73nqaPvzx8cf6/6LsC39kIHttG6Htp1Zd2jlPvz6jXlRdAjADuK+A7ljz4+6VNDqaM9DHksGfufDHx5aB6gDazfe/u6bu2XXbuS5Lbn6QL8xh+J34wP9sMsUjSUMoy4nPB8nA9/8588mfyFkjfgg2NEPsh0U82xvbyelxVlfX09KUfTxv7oh+qGX9rv61fZHv77778kX28k++Tupy2ytt+DznzgWvfbeF0Xvets/RCd+7Gvdxx975Ibuv7fc3vs7z9ZHevMx2ZuJOPqzplrn8SffnJSi6MyZM0nJv/2NW+ab44P7ezwnGro637+6Gp39yEe65ax0Oisr0Xs8iYRuH19Dd09yXoP+zsG33XFHUhpcrxMnTiSlMG1ubialKNrY2EhKCIG2G3/74RuijZfktwv9diO/XTFuv7AE4HNPHI1ed6bXbvzgbdl2oz+ckLX1kf6VUdNqNz778iPRdz4YH7hz9tXPv6J3nwCb5Xd4blpk3/at7fmj449Hz/vzK7l13Lr/wdG/i779L57plrN0+/h8/uW9ExD3ZRYP/+j9SYl2Y5bOnTuXlAZduHCh+2/QCYEt9lt+43uTRwb91lv/MSlF0a/8en4d897ffqI7HZcQWPmNb/++7nO/9dbe3296R+/vPL/+5n/s1pnWju1uIPTpISf3WUJgnvScF/DCOBlwc/373d44XpYlA47v3IHnx3Xsx4uM7zwF893Sg0FCgKrJJgTG12785lt6+7N5c9xu5LeGUfS+B57o/usSAvPLcbth9d/5q72/h7UbvxHPx0wzITCv9Yz5v/9YvLzJJF/zdH4d6/bvXRgYRa96Kn9/fX+cDLilec3T+ecOvPfoE90fPjJ20qJvG/6+LVOChGA+RiUEtbjKoKx339fboavOJQbKkgFlPQVZmgyY7N/GkgEAxb0rkHbj/fEBO+uPMucAWE9BlvUMaPpiyUHW++Jpax2EJagegtOnTyelwcwrdBcvXkxKrFcI6CEIC+1GWGg3ZoceAgAAMBIJAQAACPekwtDpyTKPP379eF2o6rBeZ8+ejXxXXoTm5MlTSclve/t8UgoT7Ub11WG9fN3188SQAQAAGImEAAAAhDtkoF0xIdKzZ5f1uluuJ56dSbr6i7zWxz/Nu+P/+64479ne/uP4//MfaqHdqD7ajflgyAAAAIxEQgAAAEgIgGVlQwN5MYm86VmMGi4AUH0kBAAAgIQAAACQEAC1ZlcNjAoA9UBCAAAASAgAAAAJARCksl36Wl+jiLzXWRS5yZDdjKhMfQCLQ0IAAABICAAAAAkBsLQGu/enT4cDfMEwARAOEgIAAEBCAAAASAiAIA3+jgAATI6EAAAAkBAAAIAoanRijUb/TOD4z6Q0aHt7Oyktzvr6elKKohMnTiSlMG1ubialKDpz5kxSYr2qStdrY2MjKc1XkeGB3pn9xS1qyMGuUJjXFQi0G9VHuzEf586dS0qDLly40P2XHgIAAEBCAAAASAgAAECMhAAAAJAQAAAAEgIAABAjIQAAACQEAACAhAAIxuDPCucr+xsHOs1JoshNhvTnkvlZZKB6SAgAAAAJAQAAICEAgjTYXV9dDBMA4SAhAAAAJAQAAICEAFhaZa84KOvkybtl+vk/mw4gHCQEAACAhAAAAJAQAEEqOxyg9TWKyHudRZFhAoYVgHCQEAAAABICAABAQgDUmg4B+AJAPZAQAAAAEgIAAEBCACwt/b0DjUnkTc+C3ykAwkdCAAAASAgAAAAJARCkvG77bPgUqaOK1NefOfYFwwpAtZEQAAAAEgIAABBFjU6s0eh35cV/JqVB29vbSWlxTp8+nZSiaHNzMymF7+LFi0mJ9QrBxsZGUkIIaDfCQrsxO+fOnUtKgy5cuND9lx4CAABAQgAAAAIbMgAAAONhyAAAAIxEQgAAABgyAABgWfmGCRRDBgAAIEVCAAAAekMGSblLhw8uXbqUlIp1OwAAgLAwZAAAAFIkBAAA4PohA72aYH19PSlF0V133ZWUAABAyNwwgXHHd3oIAAAACQEAABgxZKB0+AAAAIRra2srvarQXUVIDwEAACAhAAAAJYYMAADA8mHIAAAApEgIAAAACQEAACAhAAAAMRICAABAQgAAAEgIAABAjIQAAABU/8ZEk/yGgt6reRZ02S5dupSUZmOe8ypiY2Mjynx0usouW5H3t8g0pzUd33qpaX2uJvls67qU/WxU7bMEYLG4MRHGYgcTi1EHzVHswFv0gDisnlueIopMp8h62bIDwLIhIQAAAOH+loF27c56aMBHv3HOuut1nvPyyXanu+XQx8t2WRvf+5edn9HpZ6fjm3e2npnWdCb57On0imw3n7LTmdZ8ASwHhgyWkDX0LqbJTVMPznYgnAY7IPkOqDaPogesaR3YprVeABAaEgIAAFDPhMC6ovXbdF74+Or4HldaxxdVY9tK2TfxYd/qq2Za2zS7HaYt+zlwAQDzUquEwDWy2XHpPEXrTVtVDgJ522oW3enDtrNL3Mbhln9SbjqL+CwAwDwxZAAAAOpzlYHWN76T0PK+VRapO+lJbaPmO815jVJ0Wzlav+iyZecxSt50fdskuy3dc0Xq62fJtx308SKfPZ9pvadlpzOt+QJYDrW+ymBY17c1kItoJBc131FmMUwwK3ag04OdGWebuuloMhDSdgCAcTBkAAAASAjmyX3zHBZVY93jecupUabr32RfY9++XQ+JhnbFu3n5ZJ9z0yjL1lflLQsALCMSgjlwB1Vcb9jB1iUKZY3zmjwMEwCoExICAABAQjBrRbvHXUzCdatP2hsxahmz4fuGP63lKcotz6RGrRcALKNaJgTZcWI17gHMXlN2LH1c8zrAzsOw7TatoRabxjSnM6/3eRzD1nNa2wHAcqKHAAAA1Ovnj8t+OyoyXV0OJ9ttnVeniOx08pZf6+jz2dfOkq5f0eUpu01861P2PZ31dMooO081q+0JoH5qeWMiawQtiiQPReu58fZhitQpwi2/j3t+GvOatTLbpMg6F1FkOkXf86qZ1vYEUF8MGQAAgHCHDFB9ixrCAAAUV+vfMgAAAINICAAAAEMGAADUGUMGAAAgRUIAAABICAAAAAkBAACIkRAAAIDqX2VQ9uY2ek93u51rkVvRllF2ebg5z3QVuf9/2ffFZ1qfn3F/y8Louizqs1dkOrPe75TvvZtkW/lMa5v7PgOz3lZAEVxlgKBYQ+s7EGQNq1dmOtaI11mZbTVrblmqsjzTYp8xt17jJo3AtJAQAAAAhgzKKrs8ZevjeroNjW87ZusZrTvJdCb5LOlncpLPQNnPUtn6WWVeP6v9TqerRs1j0nV3ZrXNtZ6aZFmBcTFkgJmzRs/FtAxrMO25og0qDe9w03zPpsWSAPcehz7u7taDzyGqhIQAAADUc8jA1w2pfPMqsjxFvl3N4rWq7De8SbaV77Vl37tp8c23yPKM20U9zCSfN1V2e46z/fU1TtltpSbZbtllKTOtcdY9z6K2+STbDSirlkMGtuNZjGrETNF6i5DXgDhuHSflplNkGxQ5MMzDJOteZn3rwg5okxxMp8mWY1kPkG47kwBg0RgyAAAA9RkyyH6L9U0r7xum1i27PGXrD1Nm2cyo+c16W81a3vydvOXwvRe+7ebbPmXpdCbZPr7l95mkvimzrNPaVqrs8qtJXqtmvc3VLLYhUESQQwbZBkvZcxZ6IPOxnc3HdmKLKu6MbtmKKNsY+YS6rYpwnxk1bH2XVd52mNbnZ5lkt5HK24ZAaBgyAAAA1U8IxvmmEvI3V/dNY1jMk3Vj5i2DRpFemVlw77ML5ZbNJ/ucm0bdu2nztmWdjbMt2IYIVXA9BHkHITtohW7UAaysaU4rFOM2xHVuvEP5nGT3+UXJ208n3YZumlVYP9QbQwYAACCMhKDMN78QTwrLfsNw6+sLn+xz7puHL4qegJmd/7BQOq9JTGs6WXnLXBd527Nq28KWpwpDOGU+J5NuQzevug9dYTFq2UMwbIjBNZRFDpZF6zll64+jTONVRNWGY7IHMeXeu0m56VS5C3fY8pXdDqF8ZvR8liq/N0W49SjzPgGzxpABAACo/o2JsnwZdZFvOGWzcesuz+u6s28q2W8ow+ZfpP643xQm+Wany5Vd12ksj05jkuU0ZZfHN79pTaeMvPe/qOz8y04rb/mz22Aa62jytq1vHyqryPum61H2fVbDtodvuqO2YZH3bVrbCijL3ZgouITAGXYwG2VaO6c2DkUa1SL1yzZkReablTcP3/pO4wA0TUW2T9n3wmdaDXTZbagm+ZwUee0s3q9J9s0ifOuu61Jk+/iU/fwUqe/7DMxi+wBl1fLHjQAAQL5gewhwvXG+Fc3iGyIAIBz0EKDbXQkAgCEhAAAADBkAAFBnDBkAAIAUCQEAACAhAAAAJAQAACBGQgAAAKp/lcEktyDV24LO+naqVVbk1rncQhUA6omrDGrAkimLUcmAsaQBAFBfJAQAAKCev3ZYB9mhFt9vFuQNybA9AaA+GDKoKNfNn3egHpcd4H0sUbAgAQCAeiMhAAAA9Rky8NX3nYGvdfTbepGfCy7y7b5IF36RefnodCbZPpMo28tRZJv4TOt9KbutipjW9gSAWWDIYARr9O0Akj2I2N++g4F7TRHDpjNttlw+bh2nuSxltsMwZbenj1vHIua9rQCgKkgIAAAAQwbZx4d9Q8zSbursN1DfMun8nEmGBoYp+q3YmcZyFN0Oo2SnU2Y4Ydj7UmY6vs+JmdV7BgDzxpCBhzX0FnoQc48VPQhkX6/sIFN0OugZtr3Kvi8+bjrjJC8AsAxICAAAAEMGRR7Xb5batex7vKxh31zHNa2u8nFku9eHKbNcRRV5v8ZRZpkm3YYAMC8MGdSIHZx87CBpMc2Dl82v6MHXDrJFk4dFK7OtLCkCgJCQEAAAAIYMyk7H1wU9ra7pWUxnku0zKzo/pwrbc9LtoPNz5rE9AWBcDBnMkB0Usge7RbKDnI8ta9WWNyvvIDuOYdMJYTsAwCyREAAAAIYMyk5Hv2Vmu6B1WmXMoqvcDPtGnGfS+Zmy8zS+7T6N7WmmsR3GWZZpbE8AmDWGDGbADmyTHgTs9S4m5aZTZPzaln0Rhi3fNLancduhiGlth0VtTwAYFwkBAAAId8gAAABMjiEDAACQIiEAAAAkBAAAgIQAAADESAgAAKi9KPp/NRBNCevlL9YAAAAASUVORK5CYII=;" parent="14" vertex="1">
          <mxGeometry x="17.999999999999545" y="36" width="516" height="342" as="geometry" />
        </mxCell>
        <mxCell id="19" value="" style="whiteSpace=wrap;html=1;strokeColor=#FF8000;strokeWidth=4;fillColor=none;movable=1;resizable=1;rotatable=1;deletable=1;editable=1;locked=0;connectable=1;labelBackgroundColor=none;labelBorderColor=none;fillStyle=solid;fontFamily=Helvetica;fontSize=16;fontColor=#000000;" parent="14" vertex="1">
          <mxGeometry x="385" y="159" width="54" height="54" as="geometry" />
        </mxCell>
        <mxCell id="25" value="" style="rounded=0;whiteSpace=wrap;html=1;fillColor=none;strokeColor=none;" parent="14" vertex="1">
          <mxGeometry x="330" y="159" width="55" height="54" as="geometry" />
        </mxCell>
        <mxCell id="lLcEE2VpeBTed9rbKcfn-34" value="" style="whiteSpace=wrap;html=1;strokeColor=#99FFFF;strokeWidth=4;fillColor=none;movable=1;resizable=1;rotatable=1;deletable=1;editable=1;locked=0;connectable=1;labelBackgroundColor=none;labelBorderColor=none;fillStyle=solid;fontFamily=Helvetica;fontSize=16;fontColor=#000000;" vertex="1" parent="14">
          <mxGeometry x="113.99999999999955" y="159" width="54" height="54" as="geometry" />
        </mxCell>
        <mxCell id="lLcEE2VpeBTed9rbKcfn-48" value="" style="rounded=0;whiteSpace=wrap;html=1;strokeColor=none;fillColor=none;" vertex="1" parent="14">
          <mxGeometry x="64" y="161" width="50" height="50" as="geometry" />
        </mxCell>
        <mxCell id="20" value="" style="edgeStyle=none;orthogonalLoop=1;jettySize=auto;html=1;rounded=1;shadow=0;strokeColor=#d79b00;strokeWidth=2;fillColor=#ffc98f;shape=flexArrow;labelBorderColor=#000000;fontSize=16;fontColor=#000000;labelBackgroundColor=#FFFFFF;fillStyle=solid;movable=1;resizable=1;rotatable=1;deletable=1;editable=1;locked=0;connectable=1;exitX=0.5;exitY=0;exitDx=0;exitDy=0;" parent="1" source="19" target="21" edge="1">
          <mxGeometry width="80" relative="1" as="geometry">
            <mxPoint x="2610" y="300.00000000000045" as="sourcePoint" />
            <mxPoint x="2770" y="290" as="targetPoint" />
          </mxGeometry>
        </mxCell>
        <mxCell id="21" value="Hydrogen Sulfide" style="whiteSpace=wrap;html=1;strokeColor=#d79b00;strokeWidth=4;fillColor=#ffe6cc;fontSize=16;labelBackgroundColor=none;labelBorderColor=none;fillStyle=solid;movable=1;resizable=1;rotatable=1;deletable=1;editable=1;locked=0;connectable=1;fontColor=#000000;" parent="1" vertex="1">
          <mxGeometry x="2670" y="244" width="204" height="36" as="geometry" />
        </mxCell>
        <mxCell id="27" value="Light Fuel" style="edgeStyle=none;orthogonalLoop=1;jettySize=auto;html=1;rounded=1;shadow=0;strokeColor=#74e830;strokeWidth=2;fillColor=#c8f7c5;shape=flexArrow;labelBorderColor=#000000;fontSize=16;fontColor=#000000;labelBackgroundColor=#FFFFFF;fillStyle=solid;movable=1;resizable=1;rotatable=1;deletable=1;editable=1;locked=0;connectable=1;exitX=0.5;exitY=1;exitDx=0;exitDy=0;spacing=2;entryX=0.5;entryY=1;entryDx=0;entryDy=0;" parent="1" source="25" edge="1" target="lLcEE2VpeBTed9rbKcfn-32">
          <mxGeometry width="80" relative="1" as="geometry">
            <mxPoint x="2717.5000000000005" y="573" as="sourcePoint" />
            <mxPoint x="3527.5000000000005" y="574" as="targetPoint" />
            <Array as="points">
              <mxPoint x="2718" y="640" />
              <mxPoint x="3128" y="640" />
            </Array>
          </mxGeometry>
        </mxCell>
        <mxCell id="lLcEE2VpeBTed9rbKcfn-35" value="Hydrogen" style="whiteSpace=wrap;html=1;strokeColor=#6c8ebf;strokeWidth=4;fillColor=#dae8fc;fontSize=16;labelBackgroundColor=none;labelBorderColor=none;fillStyle=solid;movable=1;resizable=1;rotatable=1;deletable=1;editable=1;locked=0;connectable=1;fontColor=#000000;" vertex="1" parent="1">
          <mxGeometry x="2399" y="243.99999999999955" width="204" height="36" as="geometry" />
        </mxCell>
        <mxCell id="lLcEE2VpeBTed9rbKcfn-33" value="" style="edgeStyle=none;orthogonalLoop=1;jettySize=auto;html=1;rounded=1;shadow=0;strokeColor=#3f79ca;strokeWidth=2;fillColor=#d6e7ff;shape=flexArrow;labelBorderColor=#000000;fontSize=16;fontColor=#000000;labelBackgroundColor=#FFFFFF;fillStyle=solid;movable=1;resizable=1;rotatable=1;deletable=1;editable=1;locked=0;connectable=1;spacing=2;entryX=0.5;entryY=0;entryDx=0;entryDy=0;exitX=0.5;exitY=1;exitDx=0;exitDy=0;" edge="1" parent="1" source="lLcEE2VpeBTed9rbKcfn-35" target="lLcEE2VpeBTed9rbKcfn-34">
          <mxGeometry width="80" relative="1" as="geometry">
            <mxPoint x="2510" y="277" as="sourcePoint" />
            <mxPoint x="2501.40234375" y="506" as="targetPoint" />
          </mxGeometry>
        </mxCell>
        <mxCell id="lLcEE2VpeBTed9rbKcfn-37" value="LCR" style="swimlane;whiteSpace=wrap;html=1;strokeColor=#858585;labelBackgroundColor=none;labelBorderColor=none;fillStyle=auto;strokeWidth=1;fontSize=16;fontColor=#F7F7F7;fillColor=#707070;fontStyle=1;movable=1;resizable=1;rotatable=1;deletable=1;editable=1;locked=0;connectable=1;startSize=24;" vertex="1" parent="1">
          <mxGeometry x="1680.0000000000005" y="360" width="552" height="393" as="geometry" />
        </mxCell>
        <mxCell id="lLcEE2VpeBTed9rbKcfn-38" value="" style="whiteSpace=wrap;html=1;strokeColor=#FFFF00;strokeWidth=1;fillColor=none;movable=0;resizable=0;rotatable=0;deletable=0;editable=0;locked=1;connectable=0;" vertex="1" parent="lLcEE2VpeBTed9rbKcfn-37">
          <mxGeometry y="24" width="15" height="15" as="geometry" />
        </mxCell>
        <mxCell id="lLcEE2VpeBTed9rbKcfn-39" value="" style="whiteSpace=wrap;html=1;strokeColor=#FFFF00;strokeWidth=1;fillColor=none;movable=0;resizable=0;rotatable=0;deletable=0;editable=0;locked=1;connectable=0;" vertex="1" parent="lLcEE2VpeBTed9rbKcfn-37">
          <mxGeometry y="378" width="15" height="15" as="geometry" />
        </mxCell>
        <mxCell id="lLcEE2VpeBTed9rbKcfn-40" value="" style="whiteSpace=wrap;html=1;strokeColor=#FFFF00;strokeWidth=1;fillColor=none;movable=0;resizable=0;rotatable=0;deletable=0;editable=0;locked=1;connectable=0;" vertex="1" parent="lLcEE2VpeBTed9rbKcfn-37">
          <mxGeometry x="537" y="24" width="15" height="15" as="geometry" />
        </mxCell>
        <mxCell id="lLcEE2VpeBTed9rbKcfn-36" value="" style="shape=image;verticalLabelPosition=bottom;labelBackgroundColor=default;verticalAlign=top;aspect=fixed;imageAspect=0;image=data:image/png,iVBORw0KGgoAAAANSUhEUgAAAgQAAAFaCAYAAABhbkWMAAAAAXNSR0IArs4c6QAAAARnQU1BAACxjwv8YQUAAAAJcEhZcwAADsMAAA7DAcdvqGQAACxmSURBVHhe7d17sCRlmefxPLe+Y9Ogwq6hMREa/jXiEgFyaZVGREFnnHVsdDEC/UNDQ2M2JlDaAQG5NjKKsK474WU1JsCZQaQdZ70ggkAjdjcdQjjIThhqGIxryCh0N9AN3X2uvfVkvW/mr7LzrZN5KqtOZtX3E/Gcek9VVt6qKvOp96nMHDvSEoldu3a5FgAAGHa33HJLfDse/wUAACONhAAAAJAQAACAKOr6G4IzzzzTtQAAQJPt2LEjGhsbc/+l+A0BAABIkBAAAICjSwbanZB5CAAANNT4+HiyX9fyASUDAACQICEAAADtkgFlAgAAhpseRbhx48Zkf3/BBRfEt/QQAAAAEgIAALDEkgEXQAIAoFn80QRZd955Z3xLDwEAACAhAAAAJRICKxP4AAAAw4UeAgAAQEIAAABKHGVAqQBAEw3TZdxPO+0014qi3bt3u1bzjcJyhX7hP0gcZQAAABZFQgAAACgZABhuWjLQLtwm2rx5s2tF0ZYtW1yL5aorXS67dsByo2QAAAAWRUIAAABICAAAAAkBAABoISEAAAAkBAAwSI888siisVx6mQd9biiWS1XzUNV46oqEAAAAkBAAAABOTARgyNXhxETaxXzKKae4Vlho+H6cwCfU/d3LfIY0ZblUL+PhxEQAAKBxSAgAAAAJAQCMMuv69tEP1uXuY5CqWq6qxtMEJAQAAICEAAAAkBAAQN9pt7N2oYei6XRZdNlRbyQEAACAhAAAAJAQAMBAaRd6KJqIMkHzkRAAAAASAgAAQEIAALXQ9C73Js4zOpEQAAAAEgIAAMDljwEMuTpc/lhZSSBPka72qi4THJqHIkLzWWScoefWbbmqGg+XPwYAAI1DQgAAACgZABhudSsZ9KKqrvW6GYXlomQAAAAagYQAAACQEAAAABICAADQQkIAAABICAAAAAkBAABoISEAAAAkBAAAgIQAAAC0kBAAAAASAgAAQEIAAABaSAgAAAAJAQAAICEAAAAtJAQAACAaO9IyNjbm/o2i1r+u1WnXrl2uhapdfPHFrtV8mzdvdq0o2rZtm2s1ny7Xxo0bXQtNcOaZZ7pWFJ122mmu1Uz6PtyyZYtrsVx1Vbftxi233OJane688874lh4CAABAQgAAACgZ1IKWDLSLqYkuueQS14qi008/3bWGa7lG7bNwxhlnuFYzl32YPl9KS3IsV/1RMgAAAI1AQlAzH/vzb8aRlb3PD5cNAACWgpJBDWiX5s5bF1wrim7+7rtdq50A+P/9jn/zpS+LznTdUP4+P8yOHTviWxPqqqpqGEXJYPhoyUA1ZT3oUQZNp7+63717t2s13ygsV6i7fpAoGTRQdsef512tZEBTN3uOJhAAAJRBQlBTRZICAACqQsmgBrIlA/2mrwmBJgnWQ2D6XQ6gZNA2yJJBqIu+zuq8feDERPU3CstVZPvZb5QMGo4yAABgEEgIGoCkAADQbyQENWbd9T70f6XDWClhsWE0VN7jFkrvv/3225MArMzhA0AzkRA0kP1+4Fs3/v6oAABgqUgIhoj/oSEAAGVxlEENhM61rl32bzznJNeKohUrplyrldFNTLhW68WU13Fc2mPj0tb7C7T1/TA/N+9aUfSlL9zhWlF04YUXuhZHGVRhmLrd67DdqPNRBo888ohrdTrllFNcq1Pdfo0fmv8idBnrfJRBkWUs8npxlAEAAGgEEgIAAEDJoA6KlAzefH7aJbVy1QrXiqKZ6VnXar2YUhpYu3aNa4XLAVpW2PbN77uWDeMaLZvf82euFUWzM+m0Pn/T112LkkHVbrvtNteqhy9+8Yuu1Zvl2obUrWSgXdChruaQOpcMiixLaPhRWC5KBgAAoBFICAAAACWDOihSMnjrn73OtaJoYSF9jdYds9a1WtndeJrfHTp02LU6ywfjUlbYdsf3XCuK3n3hX7hWZ8ngjn/6jmtF0Ts3n+9aUXTzjX/vWpQMqjbsJ/ex98XNN9/cUb7qpzqUDHopE6i6da2XRclgeVEyAAAAiyIhAAAAJASNYd2rLqyr1YeVAHyE7tfQYTQ6hxmXOHpYC2CprBv1h3ffHd39gx/EMWqse3mxGCa6XNad7qPOdD51/kOhwzcZCQEAACAhAAAAHGVQC0WOMjjvHekv9letWuladmKiGddqZXcTaX4XOjHR+Fg6jJ7I6Ju3p0cTtB5xt1H0nve+w7Va05ITE910w9dci6MMqjYKlxAe5PakiUcZhIav26/xQ8oub92Wqx+vF0cZAACARiAhAAAAlAzqoEjJ4Py/SLvf9cRExxyzzrVa2Z2cmOiwnphoXX754NChadeKonWBYW7/x39xrSh61+a3uVYUfWbrV12LkkHVhvVaBh/96Efj7cv73vc+d89gUDIYPEoGbZQMAABA45AQAAAASgZ1ULZkcKTjWgaBksFhvZaBXu9ASwb51zuwExJ53/jHb7tWFP3lBW93rSj6zPX/27UoGVRtmI4y8GUCM+hSgVfnyx+HhLqpKRkMXlWvFyUDAADQCCQEAACAkkEdlD4x0cr0xETTM3JiIikZhC55rK+1lgbu/EboxETpZZHnZtMTE3GUQf80vWRQhzKBqlvJoBdNKRmUNQrLRckAAAA0AgkBAAAgIWiK2dnZJGZmZpKYmBjPDR1mejo/dJj/+q7zk3jn5jRmW4/5mJmdSwJQVib4yEc+EsdFF10UlwrqUC4AUBwJAQAAICEAAAAcZVALoaMMbr/9dtcaLH0P6HsjhKMMqtWUaxnU7WiCEI4yqD+OMhgMjjIAAACLIiEAAACUDOogVDII0VKCdterQQ6jKBkMHz1Rkh1F4DXlKAJKBvVHyWAwKBkAAIBFkRAAAAASAgDd+RMOWfgTDnHSIWD4kBAAAAASAgAAwFEGtaCXOdZfszfdTTfd5FrDtVx8FpqFowzqj6MMBoOjDAAAwKJICAAAACUDAMONkkH9UTIYDEoGAABgUSQEAACAkgGA4Vb2WiFNsW3bNtdiuZqAkgEAAGgEEgIAAEDJAMBw06MMmk5/db97927Xar5RWK5Qd/0gUTIAAACLIiEAAACUDAAMNy0Z7L5/vWtF0fx8ut2bm0vbC7IJHE/vjiYn0wcmJtL2mtXzrhVFszKe1pbVtWxartGi0w1ZsSId/5RM94c7rmz9bT9fT+Czc+dO17LxpxObm5tzrc5tu27zJycnXcuWa8K1omjdunWuFR6P3q9tHf/CwoJrRdHKlStdy5ZxhWtF0T333ONancv1xBNPJOPS8Sud//Hx/O+4Og86Hl1XStdDiE5Xx6n3+654w1EGAACgEUgIAAAAJQMAw01LBg98/zjXiqKJ8XRbt2qVdrOn35O0NBBy6HA6vJYJxsbS5+r9e/Y841o2ftdo0d7rDRs2uFann/3yMtfq7Fq/9957Xauzy3rNmjWuFUUzMzOuVaxL/PDhw64VLjfo/dr9rsNMT0+7VictGTz22GOuVb5koIp044fGo8OoIsNrqULLE5QMAABA45AQAAAASgYAhpuWDHbee6xrWZev/vI8/W6kRxyE6JEISo9KmJpKx79uzX7Xak13Ku3GX7sm7WZ/9rkp14qiPz71vGu1hlmbHhmx418vd63OrvWHHnrItTq74rVMEOr61u2/dncrHUbHf+KJJ7pWZ2ngmGOOca0o2rdvn2tF0f796XpQDz/8sGuFSwaqSPmg7BEEVZUM1B133OFalAwAAEBDkBAAAAASAgCj45h1c0nYL/99KCsH+JhfGEtiZjYNfa6VGHzo8NMz40kceGF9Es8+N5nEH55akcQLB8eTsF5qH3akg48oyq9VrF+/PgnrKvehrBzsY641Yh9WVvChz9VhNKw04OP3v/99Env27EniySefTOL5559PQsdjXfc+itDnhuj8K52WdfXnhS6XRoiVCXwMCxICAABAQgAAAEgIAIyQPftWJHHw0EQSWg5QdqSAD+vZ9qFC96tQWWHv3gNJ7Nu3PwktAdiJj3xE7joGWU8//XQShw4dSmJ2djYJZUcK+NBuc+1a19DucS092MmLfOj9Ot1QV78+typ5826hyxiS9zyLIuzojLxoGhICAABAQgAAAEgIAIwQu75AXig9gmB2djwJHd6ug+AjdL/SMoGOc2rFhiTWrE3jqaefS6IIO3lPXij9Bb4eWaC0NKDjCd2v3eNaqnj22WeTeOGFF5IITTfElxosyipSJgiNX5+roXRZQuNpGhICAABAQgAAAEgIAIwQu9aAj5CVKxaSWLVyPokVU0eSWLduLolj1s0nseHY2ST0/oMvPJOElhU2HDuXxIuPm0nixJdGSej8hE5MpF36IatWrUpi7dq1SUxNTSXxohe9KAm7HoGP448/Pgm9f/Xq1Uno+E844YQkXvaylyWh9+vw/aDrRENpGUWVHV7LCk0uH5AQAAAAEgIAAEBCAGCE6ImG1qyeT0JLCXqSIr0egV7jQE9q9MILaeiJj/YfmExCjyDYs/fZJH77/w4k8ZsnXkhibmF9EnrUQ+jERHqiIe3G165vPVmQnhRIjxTQIwL0GgR64iM9gkB/aa/d6QcOHEhi7969SdilkH34bnWLqmjXfS90uYrMZ5FhmoCEAAAAkBAAAAASAgAjam7OLjPcDi0l6K/6V69KY2rySBIhepIiDR3/fzrxRUm87D+n8dKXrE9CSxhlafe1lhL0V/0aepSBlg+UnoxIz/Ov49dSRWj8GlrOCNESgEaILrsui0aIljw0lC573rAWTUZCAAAASAgAAAAJAYARNTFxJAm9vsDh6YkkDjyfH4cPt4ZzoUcl6GWO9egAHb9e12B6ejwJPYpBx6P3h2iXuHZrT09PJ6HXGtAjCDR0eD0qwXfDWyjtKtfh9Vf6Om86Hn1uEVpi0FKF0nHqtDR0GYvQaWnoetYoUtqoKxICAABAQgAAAEgIAIwQLQfoyYW02996sH2ETE4eyY2JCStFtEPHoxEqHxS5P0TLAXpyIe3G1+70kFDXt96f1w2fDZ2u3n/kyJEktKxQhJYeVGg+dXk1itDxFFF2/HVFQgAAAEgIAAAACQGAEWW9uz6sZ9hHSGgYPSJAxxmiw4RCL5GsJzgK0V/ga7e8nlAoJDSMdvUX6RLXYXQe9H6dVpFueZ0HDS036P1aPtATJRWZlg6j86zT0tBhlM5P05AQAAAAEgIAABBFY0datKvIunjy7Nq1y7UAoDnOPPNM14qi7XdtiM46f2+r1dk9/uAPjnMt2waORZveZsN0eujudJhVq+ajUzc95/5L/XT7eteK4sd3/WiD+y9lRzJ4Nq08Virw9IREP/23T7pWFG3ZssW1ouj++++Pzj77bPdfyu733vSmN7nW0R588MH49qyzzooefvjhuH3sscfGt2b//v2uFXWc0Ef3HXZEgRfaj1hJw9NhHn30UdfqXK5f//rXyTRe+cpXxrfmN7/5jWu16WPe7373O9dqX844bxgdjz3u/7eSg6dd/9nygBcqRXz72992rSjauHGjay2fW265xbU63XnnnfEtPQQARsZZ5+9r/R2LEwAfrV2Tu7/NJwPb73pxxzBvOC8dxicDP91+bPTLR9fFYcPkJQmD4JOBBx54IAmTTQIsQbDQ4XwyUFe2o/Y7c9thh5IBu9+SAJ8IvPzlL49vjQ7zq1/9Kg7j70cbCQGAkfLgD46Prvrbk5LYtKm9M7W2/9K6/a7jo2s+86fJMP7+K29M29Yb8Ilr/kv04Y+fEoe/f8vVJydtc9n1r+34v19s537NNdcksWnTpvj+6667Lr71rr322o7hrrrqqiS8Sy+91LXqw3bmH/jAB5JQ/rGLLrooDk/bfpgPfehDcXgf/OAHXastO+5RQkIAYGRYt/+4/Fr/6k88Hod39WdOcrevaX3fb9u+fXtH1/inWgmC0R1/dphPXHNyfGtHHmTp5ZVDMT5xJIkistO/8soro0996lPuv3YSYKzHwIbVuPzyy5MwBw4ciG+ffPLJJPRkR6ETBOklj/PO/W+hR0MU4b/B27d+3XF/9atfda023YnbMilLCqw8ocP4HhSvaBKgRyKE6PI2DQkBgJFz3aU/jxMBKw/k/V7A8zuX+7774vg2jx/GSgzL7eqrr44TgXPOOeeocsG9994bh/Uc+DDnnntufFtn1v1vO3GfxGjyo/yO3noDQvzzfdkAKRICACPHfg+gicB93z3etVJ+52KPXfe5P43bWX4YX2JYbraT10TAEoDQD/yMTwpuuOGG+LYp8mr/fkfvSwN5y+2TN0sGtGyANhICACPDrg3whvPSRMB25Ge3dorXfe418f83XP5YfKvfQv1jWTqMlhiU7/LXkxf5SyJbTE4uJKGXOQ4NHzI3N5fs3I0lKvb/1q1b4/+vv/76+JfzFvZbAetF8OH5Yf0v7LV7XMsBtsw+bLp5od3mWmLQk/nYDttHN1YusGXx4fnlMX5Hb0Ld/zrMhz/8YdfKp8ui/DQtdP0oXd6mISEAMDLavQJjcSJgOxe/I7edxaeveKy1k4sHi9kv9/0O6Kot6e8MlA5z7d/8PL5dDm9+85vj2x/96Efx/NiPBY0tlyUDJu+wxCa57bbboq9//evJUQTvf//74/AJhS23fy2+9rWvJcma8sPYc77yla+4e+GREAAYKVbrt0TAZH9UmMceP/vte9x/+ew3CW+Mz2+wfCwZ8Dt/++avRw142aQg+zuDOtLDB032/yxLBhY7nPDLX/5y9OpXv9r9B48TEwEYanpiotD2zfhvl7Zz13MOKD/M1ssfizae+0zczvLDaBd11qM/bp/A6PB0/neyhfl0m1zkxETdlsuSAHvcfnDo5y3LD9Ntnn/xi1/Et3qEwLp1dv6FNjsawbPLMOfRbnSd59CJiZ544onoT/7kT9x/nfyyWM/BK17xirid5YexoxJe9apXxe2sIsv+29/+Nr7VZddlyZYWvKadmIiEAMBQ04Tgge+3zzboewjyWEJgPmXnHIhbna7/ZFpauGLra3OH+eJnH4km3O8HPvSxU+PbPDouVTYhuO++++Jbf3hhHksI9DbLnut3eFdccUV8m8e+XXuDSAhs/2SlgTy33nprMs96zgFlPQZe6PcFWj7o9mNDK1l4w5gQ5KenADDirnWJgbKeAd2BX+9+hKi+dNMjuTv5ushLCPxvDurKdvzZ3wTYfcp21tlhNBkw2f+NJjijjh4CAEPt4osvdq0o2rx5s2s137Zt21yL5WoCeggAAEAjkBAAAABKBugf/TFX05122mmuFUU333zzUbXKpjrjjAtdK2zXrttdq5m0ZNB02oWuP75rOv187d6927WaT5cr1F0/SJQMAADAokgIAAAAJQP0j5YMVq5c6VqtN13g/RY6RjnUPb9mzRrXiqKZmRnXiqKpqSnX6hzn7Oysa3WO086rnkdPQmLXlPfPqcOvhXvp6i/y3JDwON/b+pu/7fB27fqn1t/817Kfhukog0suucS12u9P/zmZfer/xLfmSCTv5yKfKXmfj0XpefnHx9NhQvsFvbtjugHjY+n4dR5u/vtfulZnKeTh+9a3hmu35+XcDHaNB0/P0yCzHE1Opg/4c0KYNavT+ZyV8bT2hK5l03KNFp1uyIoV6finZLo/3JFeK4KjDAAAQCOQEAAAAEoG6B8tGfjLlGZlLx3q2WVTPS0HqFCJoawiz/30pz/duJJB3VAyaLv00ktdK0zfbypUMpj+j3aXr9HnjY2n5TPt0tfSQMjCfP7nLkQ/RfqZyluOrC/8w7+7VmfJ4P7vHZeUDCbG03GuWpUuy9xc+r1WSwMhhw6nw2uZYGwsfa7ev2dPes0K3VxpWWHDhg2u1elnv7zMtSgZAACAhiAhAAAAlAzQP1oyWL16tWt1tvUqYVoa0F/+63sy9P7s6CaVtl6NTae1du1a1+o8+uDgwYOu1cku/uLHO0wlgyInHapuWqNbMtAyQagcoELDh0oGM0/9c3xrtBwQOuKgw5h0oS/I8KJjfuWohMkJKUlomWBc5kHGuSCHBOi8ff7W37hWZ8lgxz3Htqbdbk9OpvOvZQI94iBEj0RQelTC1FQ6/nVr9rtWa7pT6dFMa9ek8/zsc+my//Gp513Lti3tS1ubHf96uWtRMgAAAA1BQgAAACgZoH+0ZHDCCSe4VhTt3592x+mRAqEyQRGh97DeHzqioaM7VOj9dSsZqF5OUtSLOp+MSDWlZBA6+qBIyWB+z3fiWxPqlj8SOAGXvoI6V6H71VjHZ0q+X3Y8Ob9UoaWN/3Hrr1yrs2Tw853rWsvebh88lA6vJwuamU3benSALm7o6AC9X48yWDGVtvV+PYpB5+HZZ9Nt2nHHvci1oujHj17hWpQMAABAQ5AQAAAAEgIMxt69e5OwX/X7sF/++7DuTx/WRZoX1k2aFyrveRZWkvBhpQofOg8aOp9NZGUCH/1g5QCdRl5YxzDCrEzgw0oDN954Yxxlzc1OJ2EnFPJhZQIfyrr6k7D/XajQ/R2s5OcjSuPIkdY0XYTofIbs2bciCSsZ+LAygQ9lRwr4sHKADxW6X9mRCz7mF9LYu/dAEvv27U9i/fr1SdiJj3w0DQkBAAAgIQAAACQEWGZ5XfvdQmmJIURLAzp86H6NOrMjC3ygWS677LLcMkH2/d1PwVLC+EQSqshnUMc5Pz+XhN6vUYT9wj8vlB1Z4GN2djwJHd6ug+AjdL/SMsFTTz2XxNSKDUmsWZtGqITRNCQEAACAhAAAAEScmAj9U+Tyx6qXLtPskQaelQTy6PDa1uG1vXXr1mT+lusEI/04AdFylRwGecKikbiWwR/TaxkEr0fQ7Wf1zvhY/jChfcSCHkUgu44xuT5C6LM5v5BeWyR0LYMH79rQGle7HboeQegkQnqSIr1cst6/Qq5fMDObzucf/nDAtaLomGOOdS27TkE6Hn2uev6FdB3+5GecmAgAADQMCQEAAKBkgP7RksHUVHqpUBV6v4UUea/2QsevXZ3XXXdd8hglg96NWslAaTkgJFRWKH35Y+nSL11KkJJZ6LO2UPIzOC5HL4zJtYdDJYOd965vrYd2W68jcPhwOp5QKWFyMjDPcg0CO4ogzzPPPONaYVoJmZKK6IYNXP4YAAA0GAkBAACgZID+0ZLB6tWrXcvOE57+uriI0HuyrLwuWKOlAS1t6HSvuuoqSgYVGuWSQS/CJYN/iW/b8n/9rrSsoPRyyUVKBqFyQ0fZQscZUKRkoEcH6NEESrvx1exc+lwtGRQpN+hJi3T8evnjEEoGAACgcUgIAAAAJQP0j5YMVq5c6VrW3Ze+30Llg9D7MCRUDgjRMkFoWnU7ykD1o3zQizPOeG/rb/fXbJBlAjUaJQM9ykC253Jkgb7Py326OoVewY7ygU5An6AnCpPPV5GSgXbXT0+n/+iRAgUvkZArdLCFXUrZ03LDuBz1ELp/12OUDAAAQMOQEAAAABICDMb8vF0StR2zs7NJWDdmXpSVN45sKH/pY4u8YS10nuvGygE+6szKBOl8at8xqqSXFV6Yn0uj9T72YZ8AHyH2Ci0WOp6OkHmwUkUSer/7bMUh94ccnp5I4uChNPRyw/Z0HyF21EBeWJnAh45HQy+prJdFLnJ/05AQAAAAEgIAAEBCgAHRrsKq2K/+Fwul81A2msiORPDRD3ZkQTr+Zq6jYZR04bdCu/pDQsPoeDRC8obNRuizWYR242tXf0homLm5sSR0nCE6TCjs5EU+7KRJPpqGhAAAAJAQAACAiBMToX/0xETdut1XrFiRPD4zM3NUd6I97k1OTkYHDx50/6VWrVrlWnZp1MPJiZB0uqG2CnVl3nDDDcljTTkxURFFjlKoblqcmKhXoRMTTf9H+8QyZsWJm6OZP2xz/6Xs/pDZp74d346NTUSTL3lH3FZzT3/HtVqfwdbjs0+3h1fdjhbwQvua//kP/+5anScmsqOAQp/JB39wXHxr1zjY9La9cVs9dPfxrb/taaxaNR+duum5uK1+uj29VLE9vutHNs7ObYMdyeDp9RSUXu9Ar4/w03/7pGtxYiKgg+2kbedutz7sYkJ+w2CHIdqH3+7zYSxJ8HwysHbt2mj9+vVx2PMtCQBGXbedvrFEIRs+GTA+GbAEYGHfd+MweUnCoNiOPy+8TW/bE99uv+v4jsfecF6aJJy66dn41hKAXz66Lg7TThIGn6TWFQkBBsp6Dc4444wkLGv2YSxhyN5ntLdhzZo10amnnhqdfPLJcXinn366a7XZ+IFRocnAWy/8u+gt/+1/uf862f0a577780kYSwbefMHN0Zv+8nNxeHaffqt/ixt+EK7625OCYbNkycDVn3lNcp935Y1p25KBLVefHH3446fE4X3imnQbYi67/rWuNXpICDAw09PT0fbt2zviJz/5SRJGk4AHHnjAtdp8UvC6170uvjU2Du1S9EmBdTVm2XCLxajxRwl0C9SfvXdn//itOJTtvn0YSxqyn8EffuOvkjDnvjvtVs5+BpPH0rwgYdcyWCziCxL4KOis8/cdNc9Xfvz/tuLxOOxja8mAZ48rSwosabBkwMsul3/MjjzIWrliYdGw6xf4aDISAgyELwFs2rQpCWMXN8rbEduH2u633wyE+A++/sYAQL7pP2yLI/sZXBkoM/jPoJUVlov9DuChu487ap7P+fN2mSDL7+jv+276+4Esv1zWq4BOJARYNv7D/frXvz6+9fyO3hKI7GOe/+DbMFpOAFCc/wyed+Hfxbee/wxaMhAqPSwXm2crXVz3ubRXwPgdvSUD9phUNxJ+ubbf9eKOXgW0kRBgIOwDbGGlgR07diTh+R2/duWFkgH/wTdaYlB66eI89rgPG5cP5efZoon8NQSy0Yu88Vnww6zlFXqvjk9MJGGvkMU93/irjvDe6nb8+hm03yLk8i+3leZ8iLHIptcOVeT6BcpfH+DqTzzeEf6j6nf8fkdvsomCp8Nc89n8YXyXv568yI4s8DE5uZCEHU3gIzR805AQYCDmAqWBPL5r0DZu/rcFWWeffXby7UYTCwD5FjsCQeln8N5v/rW7d/D8EQRF+Hk2mjQoXa7rLv25uxceCQEGxg4rVNn/sywZsESiG0sG9LBEAGHZpGCxJOGeO/46mnrpO91/yyN7joH2/+EvF5YMLDbMtX/z8+gN5+1z/8HjxEToG63t248D8046ZOzbvr3vdu7cGR+JkDeMz/xtmFAC4IfRrsEsO3+B0UQj9J7X++t2YqKqFDmKoF0SaK5ROTFRaOfufxRo79+pE94Vt7P8Z/DeO1sJwEvyE4Ain6/5Pe0TGC0cCZQEpLSgn6/QiYnu/95x0dlvP/qkQ8bPj+3c33h+/s7dD3P9Jx+LXv+WZ+J2ll/2bsv16I+Pbf09Eh2ezv8OvTCfbrOafGIiEgL0TTYhMKEPhX3T9+/D0I8Eiwzz+OOPJ+/hk05Kj0HO0vdz6D2v95MQNNconakw9ANA+62Af/+e+54vxLdZlgx4516Qf46B+771sWQ857zrc63px82j6Lg6LCEhsMmFfgB4TSsZGG/PTsc5B9TWyx9zrSi6fGv+OQa+dNMjrfXZnp8PfezU+DaPjksNS0JAyQADlVfvz95nvQBZRYaxZABAd/fe8d9dK3VP5ncCeTv0+//540kyMGjxbwJc27NkQNlvArLDZHfgeTv0L372EdcCPQTom2H6ZqaGqYdgFGgyqd+wm87OxOm318P0+dq2LT3vAduNatFDAAAAFkVCAAAAKBkAADAKKBkAAIBFkRAAAABKBgAADKtQmUBRMgAAAAkSAgAA0C4ZuHZMywd6Nrgi3Q4AAKBZKBkAAIAECQEAADi6ZKBHE+gV5S644ALXAgAATebLBMbv3+khAAAAJAQAAGCRkoHS8gEAAGguuyy4P6rQH0VIDwEAACAhAAAAJUoGAABg+FAyAAAACRICAABAQgAAAEgIAABACwkBAAAgIQAAACQEAACghYQAAADU/8REvVxDQc/V3A86bzt37nSt/hjktEI2btwY+bdLkXXby2tXdhmLTKvsOHV5VZFlDz1XVfU6VrWey77Hyr4fANQTJybCULCdWNEdYpnhLBbboecp89ylTgMA+oGEAAAANPdaBnXorrRveF5V3b8hg5xWlk7bK1sy6Mc8Z+crNI28+Q8NW2WZoMw0elk/Va3nsuOhZAAMB0oGQ8g26D6qYhv9Jui2A7PHFtvB+fWmO2rbyfnnlt3Z2XMBoElICAAAwGiWDPK6bLNC3yiLfPvu93N7GaYXZdd5keVV/ZhnFVo/2flc6nwUWT+hddLLshdZz0XGH1o/Ib18BgHUx0iWDGyDZ7FYMmCKDle1Ihv3YdWvde5f9+VUh3kAgG4oGQAAgNEpGWTLBKEu0bxvcUWG7aXL1yw23SqntVT96iLOvjaml2Xs9k08b7zdhs8TWvbQ+skun3+sqtd0ucbTr/cDgMEa6aMMbOMVYhvCXjaqS7Vc060Dez2atOy2IyzCdrAWmgzYcrLjBFBHlAwAAAAJwSD5b4zdAr3zvS0+1GLr2fdW5IXy48mWOrxsL0LeOACgTkgIBsB2Duzsl09VO2M/nrJd/t1KVABQFyQEAACAhKDfst3K3bqkLXrhu7Hr0htR1fyExhO6vy78a8qPCAE0wUgmBN1+Jb7UHYw9J1RPrlpdd4DddFs/VZRUuj3fHis6/iLvjV5f5yaUkLrNX1XrAUC90EMAAABG61oGZb+VFRmvzoeX7frPG6aI7Hjy5l+H0cezzy2rqnVVdtnzxtNtucrOZ2i9LNd4ir53uyk7TdWv9QmgOUbyxES28bIosgEuOpxt0BfbKBYZpgg//yH+8SqmVZUyy27Dld05llnebsP58RR9zUPKjKfocIPk57+IbusBQPNQMgAAAM0tGWB0aDd20W+vAIBiRvpaBgAAoBMJAQAAoGQAAMAoo2QAAAASJAQAAICEAAAAkBAAAIAWEgIAAFD/owzKnpRmKdc4KKPs/HBSncEInYM/tM5Dw6si758i12qo6n1YZJ5DdD0s13u4yGdTh+n356XIe6aqdVV2uxQaPvR+6/e6wnDjKAMMBdsAhzbsecoMbxvfED+evI1zVrfxjIIy66rf/LxYDJNhXS4MFgkBAACgZFBW2fkpOzyKy34b8us3tM5Dw2dlhzPdum3LjKeX90BoucoqO55ep1vm+bpue1nGrOxr5i02jarWVdntUtHhdXqqH9s+DC9KBug721j5qFLeOMvuPLoNb49ZFNmg2oYXYbZjqxt7zfxr3HR+OYq+X4FuSAgAAMBolgxC3YcqNK0i81PkG3E/nquKjEf1sq5Czy372hWRXa688YamW3Z+Qu+lXt5jvayHIq9pkfGXXQ9lhzd589qPz2MR2XkJzUeeIus8ROe5yHtGlR3e5K3HXtYbRsdIlgzsw22x2MbHFB1uOXTbSPll7JUfT5F1UGSD3qu85apyJ6HKLHtWL88dVvY6WRTdCfdTXeajHyxxIAFALygZAACA0SkZZL/Fhsal0/N02LLzU3b4bsrMm1lsev1eV1Upu1zd1nnePHeTN62y603v72X9dFuuMsqOp+zwRd8/eapaV6qX9VbVugq9Z0LKDq96WV6MpkaWDPSNnmWPWeiGKMQ+YCH2AbIo8wEcFD9vRVS1IajbuqpquaqU997rtt6GFeuhGNvZh+StQ2BQKBkAAID6JwRL+Ua4HN9cq+K/IXSLQbJvM3nzoDHIbzN5089GSPYx/z7JhvLjDC1j9tueH0cT33tVYj10WkpPCesQg9a4HoK8DXS3Lrim8MtVlSrHNYxsQxuy1A3xKHePN+UzmN12LBf/ea9yO+aTd2CpKBkAAID6H2WgNPu1b2P+G5xlxn4x9H5VZBilw+u3SZ2Hbt8yvSLDZ7P6xcbbbZzZcRVVdn0WUXZdVSU03bLzE1oPer9ZbFyh91JZVa3PsuPpNrw+5vXynqlqXWUt9T1d5bryiryvlrIOe30+RtdIX8vAPjgh9oG28B+sbooO55UdfilsI1T1hnQY6YY7q8x7oJuqxtNPRdZDUf69V9WOqF/rzt7TZZetrvxy9GtdYbRQMgAAAM0qGZhQVl/kW3HZbwShbjftmvO6Tb/I8GXnzSuy3CE6X9llrWJ+dBy9zGdZ3aZbdrlC813VeMpY6mti+rEesu/rKpbR5M1bP8edpdPS4YvMQ9HhQ/Ox2DTytiVZVa0rjI7GlgzszW6hOy/bmRWR99yQbjU4e6zMh67I8H7eBsE2RhbdNix+foqsqxA/jkEtVxFl5qfb+8qPp+h7qW7KrIciw1W5jGXmrSw/7n6Nvyg/D0vZjuWpy3Kh2SgZAACA5pUMEBbqhuyGbxQAMNpG+igDtNWxKxsAsDxICAAAACUDAABGGSUDAACQICEAAAAkBAAAgIQAAAC0kBAAAID6H2WwlJPteHacvT81aLfz9o+Sfq+HpZ6jHQCwPDjKAJWyRKOX5A0AsLxICAAAQHNPTEQJoJy8b+9VrbfQJVkpEwBA/VEyqCnbcfuoiu2w+8HPpyYD/hKsJAMA0CwkBAAAYHRKBqHhQ93dOox+Wy/yzbfIt/vQeMpOq6yy6y0ku96qKj+UUWQ9qyLrPKTseyykqveP6sf7BMDooGSwCNu424Y5u3G2/0Mbff+cIrqNB93lvS5LUWY89tqG+PEUeT27DVfm/QMAVSMhAAAAlAyy93f7JpilXbXZb3ahedLpeYPs8i273kLylqObqpYxu56XOt6i48n7xh56/5gy49Fhi75/AKBqlAwCbCNtoRtjf59uwLvJPl/Zhr7oeIaJ7fDKJBCD1O318K97kZ2zvbYhfjwAUFckBAAAgJJBkfv1m5127YbuL2uQ3xzLrreQouPR4bxel7fMug5Nq5fXq8j7Zyny1lXIIN8zAIYbJQMMhO0kq9552fiKjrOXHf+glVlXtlxFkwcAKIKEAAAAUDIoOx79xqnf5kL3l1XVeELqtt76Rafn9eP1GvR60Ol5g1ifAIYXJYM+so1+dqM9zPJ2Up49lrdzrpOq5s+WNcSmUff1AGC0kRAAAABKBmXHo9/ysl21Oq4y+tGVbcp+I82bXrf1U3b8RdbvYpbyLTu0HpcyLtOP9bCUealifQIAJYM+sA10rztxe76PuvPzWWSnVHS4qnVbj37+e+XHM8j1UNV4AMAjIQAAAM0tGQAAgN5RMgAAAAkSAgAAQEIAAABICAAAQAsJAQAAIy+K/j9s2tl8Cw8MWwAAAABJRU5ErkJggg==;" vertex="1" parent="lLcEE2VpeBTed9rbKcfn-37">
          <mxGeometry x="17.999999999999545" y="39" width="516" height="346" as="geometry" />
        </mxCell>
        <mxCell id="lLcEE2VpeBTed9rbKcfn-43" value="" style="whiteSpace=wrap;html=1;strokeColor=#99FFFF;strokeWidth=4;fillColor=none;movable=1;resizable=1;rotatable=1;deletable=1;editable=1;locked=0;connectable=1;labelBackgroundColor=none;labelBorderColor=none;fillStyle=solid;fontFamily=Helvetica;fontSize=16;fontColor=#000000;" vertex="1" parent="lLcEE2VpeBTed9rbKcfn-37">
          <mxGeometry x="167.99999999999955" y="218" width="54" height="54" as="geometry" />
        </mxCell>
        <mxCell id="lLcEE2VpeBTed9rbKcfn-46" value="" style="rounded=0;whiteSpace=wrap;html=1;strokeColor=none;fillColor=none;" vertex="1" parent="lLcEE2VpeBTed9rbKcfn-37">
          <mxGeometry x="441" y="221" width="50" height="50" as="geometry" />
        </mxCell>
        <mxCell id="lLcEE2VpeBTed9rbKcfn-42" value="" style="edgeStyle=none;orthogonalLoop=1;jettySize=auto;html=1;rounded=1;shadow=0;strokeColor=#3f79ca;strokeWidth=2;fillColor=#d6e7ff;shape=flexArrow;labelBorderColor=#000000;fontSize=16;fontColor=#000000;labelBackgroundColor=#FFFFFF;fillStyle=solid;movable=1;resizable=1;rotatable=1;deletable=1;editable=1;locked=0;connectable=1;exitX=1;exitY=0.5;exitDx=0;exitDy=0;entryX=0;entryY=0.5;entryDx=0;entryDy=0;spacing=2;" edge="1" parent="1" source="lLcEE2VpeBTed9rbKcfn-44" target="lLcEE2VpeBTed9rbKcfn-43">
          <mxGeometry width="80" relative="1" as="geometry">
            <mxPoint x="1520" y="603" as="sourcePoint" />
            <mxPoint x="1661" y="603" as="targetPoint" />
          </mxGeometry>
        </mxCell>
        <mxCell id="lLcEE2VpeBTed9rbKcfn-44" value="Oil" style="whiteSpace=wrap;html=1;strokeColor=#6c8ebf;strokeWidth=4;fillColor=#dae8fc;fontSize=16;labelBackgroundColor=none;labelBorderColor=none;fillStyle=solid;movable=1;resizable=1;rotatable=1;deletable=1;editable=1;locked=0;connectable=1;fontColor=#000000;" vertex="1" parent="1">
          <mxGeometry x="1390" y="586.9999999999995" width="204" height="36" as="geometry" />
        </mxCell>
        <mxCell id="lLcEE2VpeBTed9rbKcfn-47" value="Sulfuric Light Fuel" style="edgeStyle=none;orthogonalLoop=1;jettySize=auto;html=1;rounded=1;shadow=0;strokeColor=#74e830;strokeWidth=2;fillColor=#c8f7c5;shape=flexArrow;labelBorderColor=#000000;fontSize=16;fontColor=#000000;labelBackgroundColor=#FFFFFF;fillStyle=solid;movable=1;resizable=1;rotatable=1;deletable=1;editable=1;locked=0;connectable=1;exitX=1;exitY=0.5;exitDx=0;exitDy=0;entryX=0.5;entryY=1;entryDx=0;entryDy=0;spacing=2;" edge="1" parent="1" source="lLcEE2VpeBTed9rbKcfn-46" target="lLcEE2VpeBTed9rbKcfn-48">
          <mxGeometry x="-0.1757" width="80" relative="1" as="geometry">
            <mxPoint x="2190" y="650" as="sourcePoint" />
            <mxPoint x="2331" y="650" as="targetPoint" />
            <Array as="points">
              <mxPoint x="2449" y="606" />
            </Array>
            <mxPoint as="offset" />
          </mxGeometry>
        </mxCell>
      </root>
    </mxGraphModel>
  </diagram>
</mxfile>
